<svg width="64" height="25" viewBox="0 0 64 25" fill="none" xmlns="http://www.w3.org/2000/svg">
<path d="M31.1637 11.175V5.27373H32.2933L35.7751 9.52266H35.2271V5.27373H36.576V11.175H35.4547L31.9645 6.92609H32.5125V11.175H31.1637Z" fill="white"/>
<path d="M40.6615 11.175V10.2898L40.5772 10.0959V8.51101C40.5772 8.22999 40.4901 8.0108 40.3159 7.85344C40.1473 7.69607 39.8859 7.61738 39.5318 7.61738C39.2902 7.61738 39.0513 7.65673 38.8152 7.73541C38.5848 7.80847 38.3881 7.90964 38.2251 8.03891L37.753 7.11999C38.0003 6.94576 38.2982 6.81087 38.6466 6.71533C38.9951 6.61979 39.3492 6.57201 39.7089 6.57201C40.4002 6.57201 40.9369 6.735 41.3191 7.06098C41.7013 7.38695 41.8924 7.89559 41.8924 8.58688V11.175H40.6615ZM39.2789 11.2425C38.9248 11.2425 38.6213 11.1835 38.3684 11.0654C38.1155 10.9418 37.9216 10.776 37.7867 10.568C37.6519 10.3601 37.5844 10.1268 37.5844 9.86831C37.5844 9.59853 37.649 9.36248 37.7783 9.16015C37.9132 8.95782 38.124 8.80045 38.4106 8.68805C38.6972 8.57002 39.071 8.51101 39.5318 8.51101H40.7374V9.27818H39.6752C39.366 9.27818 39.1525 9.32876 39.0344 9.42992C38.922 9.53109 38.8658 9.65755 38.8658 9.80929C38.8658 9.9779 38.9305 10.1128 39.0597 10.214C39.1946 10.3095 39.3773 10.3573 39.6077 10.3573C39.8269 10.3573 40.0236 10.3067 40.1978 10.2055C40.3721 10.0987 40.4985 9.94418 40.5772 9.74185L40.7795 10.3488C40.684 10.6411 40.5098 10.8631 40.2569 11.0148C40.0039 11.1666 39.678 11.2425 39.2789 11.2425Z" fill="white"/>
<path d="M44.2311 11.175L42.3259 6.63946H43.6832L45.2681 10.5427H44.5936L46.2376 6.63946H47.5021L45.5884 11.175H44.2311Z" fill="white"/>
<path d="M48.0388 11.175V6.63946H49.3539V11.175H48.0388ZM48.6964 6.00718C48.4547 6.00718 48.258 5.93692 48.1062 5.79642C47.9545 5.65591 47.8786 5.48168 47.8786 5.27373C47.8786 5.06578 47.9545 4.89155 48.1062 4.75104C48.258 4.61054 48.4547 4.54028 48.6964 4.54028C48.938 4.54028 49.1347 4.60773 49.2865 4.74261C49.4382 4.87188 49.5141 5.04049 49.5141 5.24844C49.5141 5.46763 49.4382 5.65029 49.2865 5.79642C49.1404 5.93692 48.9436 6.00718 48.6964 6.00718Z" fill="white"/>
<path d="M52.7074 12.878C52.2802 12.878 51.8672 12.8246 51.4681 12.7178C51.0747 12.6166 50.7459 12.4621 50.4818 12.2541L51.0044 11.3099C51.1955 11.4673 51.4372 11.5909 51.7295 11.6808C52.0273 11.7764 52.3196 11.8242 52.6062 11.8242C53.0727 11.8242 53.4099 11.7202 53.6179 11.5122C53.8314 11.3043 53.9382 10.9952 53.9382 10.5849V9.90203L54.0225 8.76392L54.0057 7.61738V6.63946H55.2534V10.4163C55.2534 11.2593 55.0342 11.8804 54.5958 12.2794C54.1574 12.6784 53.5279 12.878 52.7074 12.878ZM52.5051 10.9558C52.0835 10.9558 51.7014 10.8659 51.3585 10.6861C51.0213 10.5006 50.7487 10.2449 50.5408 9.91889C50.3384 9.58729 50.2373 9.2023 50.2373 8.76392C50.2373 8.31992 50.3384 7.93493 50.5408 7.60895C50.7487 7.27736 51.0213 7.02164 51.3585 6.84179C51.7014 6.66194 52.0835 6.57201 52.5051 6.57201C52.8872 6.57201 53.2245 6.6507 53.5167 6.80807C53.809 6.95981 54.0366 7.19867 54.1996 7.52465C54.3626 7.84501 54.4441 8.2581 54.4441 8.76392C54.4441 9.26413 54.3626 9.67722 54.1996 10.0032C54.0366 10.3235 53.809 10.5624 53.5167 10.7198C53.2245 10.8771 52.8872 10.9558 52.5051 10.9558ZM52.7664 9.87674C52.9968 9.87674 53.202 9.83177 53.3818 9.74185C53.5617 9.6463 53.7022 9.51423 53.8033 9.34562C53.9045 9.17701 53.9551 8.98311 53.9551 8.76392C53.9551 8.53911 53.9045 8.34521 53.8033 8.18222C53.7022 8.01361 53.5617 7.88435 53.3818 7.79442C53.202 7.69888 52.9968 7.65111 52.7664 7.65111C52.536 7.65111 52.3308 7.69888 52.151 7.79442C51.9711 7.88435 51.8278 8.01361 51.721 8.18222C51.6199 8.34521 51.5693 8.53911 51.5693 8.76392C51.5693 8.98311 51.6199 9.17701 51.721 9.34562C51.8278 9.51423 51.9711 9.6463 52.151 9.74185C52.3308 9.83177 52.536 9.87674 52.7664 9.87674Z" fill="white"/>
<path d="M56.4774 11.175V6.63946H57.7926V11.175H56.4774ZM57.135 6.00718C56.8933 6.00718 56.6966 5.93692 56.5449 5.79642C56.3931 5.65591 56.3173 5.48168 56.3173 5.27373C56.3173 5.06578 56.3931 4.89155 56.5449 4.75104C56.6966 4.61054 56.8933 4.54028 57.135 4.54028C57.3767 4.54028 57.5734 4.60773 57.7251 4.74261C57.8769 4.87188 57.9528 5.04049 57.9528 5.24844C57.9528 5.46763 57.8769 5.65029 57.7251 5.79642C57.579 5.93692 57.3823 6.00718 57.135 6.00718Z" fill="white"/>
<path d="M30.3881 21.5271L33.0184 15.6258H34.3672L37.0059 21.5271H35.5728L33.4146 16.3171H33.9541L31.7875 21.5271H30.3881ZM31.7032 20.2626L32.0657 19.2256H35.1007L35.4716 20.2626H31.7032Z" fill="white"/>
<path d="M39.6172 23.2301C39.1901 23.2301 38.777 23.1767 38.3779 23.0699C37.9845 22.9687 37.6557 22.8142 37.3916 22.6062L37.9142 21.662C38.1053 21.8194 38.347 21.943 38.6393 22.0329C38.9371 22.1285 39.2294 22.1763 39.516 22.1763C39.9825 22.1763 40.3197 22.0723 40.5277 21.8643C40.7412 21.6564 40.848 21.3473 40.848 20.937V20.2541L40.9323 19.116L40.9155 17.9695V16.9916H42.1632V20.7684C42.1632 21.6114 41.944 22.2325 41.5056 22.6315C41.0672 23.0305 40.4378 23.2301 39.6172 23.2301ZM39.4149 21.3079C38.9933 21.3079 38.6112 21.218 38.2683 21.0382C37.9311 20.8527 37.6585 20.597 37.4506 20.271C37.2482 19.9394 37.1471 19.5544 37.1471 19.116C37.1471 18.672 37.2482 18.287 37.4506 17.9611C37.6585 17.6295 37.9311 17.3737 38.2683 17.1939C38.6112 17.014 38.9933 16.9241 39.4149 16.9241C39.797 16.9241 40.1343 17.0028 40.4265 17.1602C40.7188 17.3119 40.9464 17.5508 41.1094 17.8768C41.2724 18.1971 41.3539 18.6102 41.3539 19.116C41.3539 19.6162 41.2724 20.0293 41.1094 20.3553C40.9464 20.6756 40.7188 20.9145 40.4265 21.0719C40.1343 21.2292 39.797 21.3079 39.4149 21.3079ZM39.6762 20.2288C39.9066 20.2288 40.1118 20.1839 40.2916 20.094C40.4715 19.9984 40.612 19.8663 40.7131 19.6977C40.8143 19.5291 40.8649 19.3352 40.8649 19.116C40.8649 18.8912 40.8143 18.6973 40.7131 18.5343C40.612 18.3657 40.4715 18.2365 40.2916 18.1465C40.1118 18.051 39.9066 18.0032 39.6762 18.0032C39.4458 18.0032 39.2406 18.051 39.0608 18.1465C38.8809 18.2365 38.7376 18.3657 38.6308 18.5343C38.5297 18.6973 38.4791 18.8912 38.4791 19.116C38.4791 19.3352 38.5297 19.5291 38.6308 19.6977C38.7376 19.8663 38.8809 19.9984 39.0608 20.094C39.2406 20.1839 39.4458 20.2288 39.6762 20.2288Z" fill="white"/>
<path d="M45.6382 21.5946C45.1211 21.5946 44.6658 21.4934 44.2724 21.2911C43.8846 21.0887 43.5839 20.8133 43.3704 20.4649C43.1568 20.1108 43.05 19.709 43.05 19.2593C43.05 18.8041 43.154 18.4022 43.3619 18.0538C43.5755 17.6997 43.865 17.4243 44.2303 17.2276C44.5956 17.0253 45.0087 16.9241 45.4695 16.9241C45.9135 16.9241 46.3126 17.0197 46.6667 17.2107C47.0264 17.3962 47.3102 17.666 47.5181 18.0201C47.7261 18.3685 47.8301 18.7872 47.8301 19.2762C47.8301 19.3268 47.8273 19.3858 47.8216 19.4532C47.816 19.5151 47.8104 19.5741 47.8048 19.6303H44.1207V18.8631H47.1135L46.6077 19.0907C46.6077 18.8547 46.5599 18.6495 46.4643 18.4753C46.3688 18.3011 46.2367 18.1662 46.0681 18.0707C45.8995 17.9695 45.7028 17.9189 45.478 17.9189C45.2532 17.9189 45.0536 17.9695 44.8794 18.0707C44.7108 18.1662 44.5787 18.3039 44.4832 18.4837C44.3876 18.658 44.3399 18.8659 44.3399 19.1076V19.3099C44.3399 19.5572 44.3933 19.7764 44.5 19.9675C44.6125 20.153 44.767 20.2963 44.9637 20.3974C45.1661 20.493 45.4021 20.5408 45.6719 20.5408C45.9135 20.5408 46.1243 20.5042 46.3042 20.4312C46.4896 20.3581 46.6582 20.2485 46.81 20.1024L47.5097 20.8611C47.3018 21.0972 47.0404 21.2798 46.7257 21.4091C46.4109 21.5327 46.0484 21.5946 45.6382 21.5946Z" fill="white"/>
<path d="M51.4624 16.9241C51.8221 16.9241 52.1424 16.9972 52.4235 17.1433C52.7101 17.2838 52.9349 17.503 53.0979 17.8009C53.2609 18.0931 53.3424 18.4697 53.3424 18.9306V21.5271H52.0272V19.1329C52.0272 18.7676 51.9457 18.4978 51.7827 18.3236C51.6254 18.1493 51.4006 18.0622 51.1083 18.0622C50.9004 18.0622 50.7121 18.1072 50.5435 18.1971C50.3805 18.2814 50.2512 18.4135 50.1557 18.5933C50.0657 18.7732 50.0208 19.0036 50.0208 19.2846V21.5271H48.7056V16.9916H49.9618V18.2477L49.7257 17.8683C49.8887 17.5648 50.122 17.3316 50.4254 17.1686C50.7289 17.0056 51.0746 16.9241 51.4624 16.9241Z" fill="white"/>
<path d="M56.7593 21.5946C56.2704 21.5946 55.8348 21.4962 55.4526 21.2995C55.0704 21.0972 54.7697 20.819 54.5506 20.4649C54.337 20.1108 54.2302 19.709 54.2302 19.2593C54.2302 18.8041 54.337 18.4022 54.5506 18.0538C54.7697 17.6997 55.0704 17.4243 55.4526 17.2276C55.8348 17.0253 56.2704 16.9241 56.7593 16.9241C57.237 16.9241 57.6529 17.0253 58.007 17.2276C58.3611 17.4243 58.6224 17.7081 58.7911 18.0791L57.771 18.6271C57.6529 18.4135 57.504 18.2561 57.3242 18.155C57.1499 18.0538 56.9588 18.0032 56.7509 18.0032C56.5261 18.0032 56.3238 18.0538 56.1439 18.155C55.9641 18.2561 55.8207 18.3994 55.714 18.5849C55.6128 18.7704 55.5622 18.9952 55.5622 19.2593C55.5622 19.5235 55.6128 19.7483 55.714 19.9338C55.8207 20.1192 55.9641 20.2626 56.1439 20.3637C56.3238 20.4649 56.5261 20.5155 56.7509 20.5155C56.9588 20.5155 57.1499 20.4677 57.3242 20.3722C57.504 20.271 57.6529 20.1108 57.771 19.8916L58.7911 20.448C58.6224 20.8133 58.3611 21.0972 58.007 21.2995C57.6529 21.4962 57.237 21.5946 56.7593 21.5946Z" fill="white"/>
<path d="M60.0557 23.2301C59.8196 23.2301 59.5864 23.1935 59.356 23.1205C59.1255 23.0474 58.9372 22.9462 58.7911 22.817L59.2717 21.8812C59.3728 21.9711 59.488 22.0414 59.6173 22.092C59.7522 22.1425 59.8843 22.1678 60.0135 22.1678C60.199 22.1678 60.3451 22.1229 60.4519 22.0329C60.5643 21.9486 60.6655 21.8053 60.7554 21.603L60.9915 21.0466L61.0926 20.9033L62.7197 16.9916H63.9843L61.9357 21.8053C61.7895 22.1706 61.6209 22.4573 61.4298 22.6652C61.2444 22.8732 61.0364 23.0193 60.806 23.1036C60.5812 23.1879 60.3311 23.2301 60.0557 23.2301ZM60.8313 21.7042L58.808 16.9916H60.1653L61.7333 20.7852L60.8313 21.7042Z" fill="white"/>
</svg>
