<svg width="418" height="418" viewBox="0 0 418 418" fill="none" xmlns="http://www.w3.org/2000/svg">
<path d="M165.818 269.709L196.374 239.153L196.112 238.891L134.854 177.633C123.06 165.839 123.06 146.648 134.854 134.854C142.283 127.426 152.646 124.68 162.247 126.61L195.023 93.8342C166.678 76.1866 128.922 79.6741 104.298 104.298C75.6097 132.987 75.6097 179.501 104.298 208.189L165.818 269.709Z" fill="#8C52FF"/>
<path d="M269.709 251.375L239.153 220.819L177.633 282.339C165.839 294.133 146.649 294.133 134.854 282.339C127.426 274.91 124.681 264.547 126.61 254.946L93.8338 222.17C76.1866 250.515 79.674 288.271 104.298 312.895C132.987 341.583 179.501 341.583 208.189 312.895L269.709 251.375Z" fill="white"/>
<path d="M251.375 147.484L220.819 178.041L282.339 239.56C294.133 251.354 294.132 270.545 282.339 282.339C274.91 289.768 264.547 292.513 254.946 290.583L222.169 323.359C250.515 341.007 288.27 337.519 312.895 312.895C341.583 284.206 341.583 237.693 312.895 209.004L251.375 147.484Z" fill="#8C52FF"/>
<path d="M209.004 104.298L147.484 165.818L178.041 196.374L239.56 134.854C251.354 123.06 270.545 123.06 282.339 134.854C289.768 142.283 292.512 152.646 290.583 162.247L323.359 195.023C341.007 166.678 337.519 128.922 312.895 104.298C284.206 75.6097 237.693 75.6093 209.004 104.298Z" fill="white"/>
</svg>
