<svg width="302" height="502" viewBox="0 0 302 502" fill="none" xmlns="http://www.w3.org/2000/svg">
<g clip-path="url(#clip0_1_406)">
<rect x="-9" y="-4" width="320" height="508" rx="6.61451" fill="white" fill-opacity="0.1"/>
<g clip-path="url(#clip1_1_406)">
<rect width="322" height="511" transform="translate(-11 -4)" fill="#290F5E"/>
<rect x="-3.57324" y="-11.8188" width="51.4689" height="51.4689" rx="5.67933" stroke="#381481" stroke-width="0.532437"/>
<rect x="47.8958" y="-11.8189" width="51.4689" height="51.4689" rx="5.67933" stroke="#381481" stroke-width="0.532437"/>
<rect x="99.3646" y="-11.8189" width="51.4689" height="51.4689" rx="5.67933" stroke="#381481" stroke-width="0.532437"/>
<rect x="150.834" y="-11.8188" width="51.4689" height="51.4689" rx="5.67933" stroke="#381481" stroke-width="0.532437"/>
<rect x="202.302" y="-11.8188" width="51.4689" height="51.4689" rx="5.67933" stroke="#381481" stroke-width="0.532437"/>
<rect x="253.771" y="-11.8188" width="51.4689" height="51.4689" rx="5.67933" stroke="#381481" stroke-width="0.532437"/>
<rect x="-3.57324" y="39.65" width="51.4689" height="51.4689" rx="5.67933" stroke="#381481" stroke-width="0.532437"/>
<rect x="47.8958" y="39.65" width="51.4689" height="51.4689" rx="5.67933" stroke="#381481" stroke-width="0.532437"/>
<rect x="99.3646" y="39.65" width="51.4689" height="51.4689" rx="5.67933" stroke="#381481" stroke-width="0.532437"/>
<rect x="150.834" y="39.65" width="51.4689" height="51.4689" rx="5.67933" stroke="#381481" stroke-width="0.532437"/>
<rect x="202.302" y="39.65" width="51.4689" height="51.4689" rx="5.67933" stroke="#381481" stroke-width="0.532437"/>
<rect x="253.771" y="39.65" width="51.4689" height="51.4689" rx="5.67933" stroke="#381481" stroke-width="0.532437"/>
<rect x="-3.57324" y="91.1188" width="51.4689" height="51.4689" rx="5.67933" stroke="#381481" stroke-width="0.532437"/>
<rect x="47.8958" y="91.1189" width="51.4689" height="51.4689" rx="5.67933" stroke="#381481" stroke-width="0.532437"/>
<rect x="99.3646" y="91.1189" width="51.4689" height="51.4689" rx="5.67933" stroke="#381481" stroke-width="0.532437"/>
<rect x="150.834" y="91.1188" width="51.4689" height="51.4689" rx="5.67933" stroke="#381481" stroke-width="0.532437"/>
<rect x="202.302" y="91.1188" width="51.4689" height="51.4689" rx="5.67933" stroke="#381481" stroke-width="0.532437"/>
<rect x="253.771" y="91.1188" width="51.4689" height="51.4689" rx="5.67933" stroke="#381481" stroke-width="0.532437"/>
<rect x="-3.57324" y="142.588" width="51.4689" height="51.4689" rx="5.67933" stroke="#381481" stroke-width="0.532437"/>
<rect x="47.8958" y="142.588" width="51.4689" height="51.4689" rx="5.67933" stroke="#381481" stroke-width="0.532437"/>
<rect x="99.3646" y="142.588" width="51.4689" height="51.4689" rx="5.67933" stroke="#381481" stroke-width="0.532437"/>
<rect x="150.834" y="142.588" width="51.4689" height="51.4689" rx="5.67933" stroke="#381481" stroke-width="0.532437"/>
<rect x="202.302" y="142.588" width="51.4689" height="51.4689" rx="5.67933" stroke="#381481" stroke-width="0.532437"/>
<rect x="253.771" y="142.588" width="51.4689" height="51.4689" rx="5.67933" stroke="#381481" stroke-width="0.532437"/>
<rect x="-3.57312" y="194.057" width="51.4689" height="51.4689" rx="5.67933" stroke="#381481" stroke-width="0.532437"/>
<rect x="47.8959" y="194.057" width="51.4689" height="51.4689" rx="5.67933" stroke="#381481" stroke-width="0.532437"/>
<rect x="99.3647" y="194.057" width="51.4689" height="51.4689" rx="5.67933" stroke="#381481" stroke-width="0.532437"/>
<rect x="150.834" y="194.057" width="51.4689" height="51.4689" rx="5.67933" stroke="#381481" stroke-width="0.532437"/>
<rect x="202.303" y="194.057" width="51.4689" height="51.4689" rx="5.67933" stroke="#381481" stroke-width="0.532437"/>
<rect x="253.772" y="194.057" width="51.4689" height="51.4689" rx="5.67933" stroke="#381481" stroke-width="0.532437"/>
<rect x="-3.57312" y="245.525" width="51.4689" height="51.4689" rx="5.67933" stroke="#381481" stroke-width="0.532437"/>
<rect x="47.8959" y="245.525" width="51.4689" height="51.4689" rx="5.67933" stroke="#381481" stroke-width="0.532437"/>
<rect x="99.3647" y="245.525" width="51.4689" height="51.4689" rx="5.67933" stroke="#381481" stroke-width="0.532437"/>
<rect x="150.834" y="245.525" width="51.4689" height="51.4689" rx="5.67933" stroke="#381481" stroke-width="0.532437"/>
<rect x="202.303" y="245.525" width="51.4689" height="51.4689" rx="5.67933" stroke="#381481" stroke-width="0.532437"/>
<rect x="253.772" y="245.525" width="51.4689" height="51.4689" rx="5.67933" stroke="#381481" stroke-width="0.532437"/>
<rect x="-3.57312" y="296.995" width="51.4689" height="51.4689" rx="5.67933" stroke="#381481" stroke-width="0.532437"/>
<rect x="47.8959" y="296.995" width="51.4689" height="51.4689" rx="5.67933" stroke="#381481" stroke-width="0.532437"/>
<rect x="99.3647" y="296.995" width="51.4689" height="51.4689" rx="5.67933" stroke="#381481" stroke-width="0.532437"/>
<rect x="150.834" y="296.995" width="51.4689" height="51.4689" rx="5.67933" stroke="#381481" stroke-width="0.532437"/>
<rect x="202.303" y="296.995" width="51.4689" height="51.4689" rx="5.67933" stroke="#381481" stroke-width="0.532437"/>
<rect x="253.772" y="296.995" width="51.4689" height="51.4689" rx="5.67933" stroke="#381481" stroke-width="0.532437"/>
<rect x="-3.57312" y="348.463" width="51.4689" height="51.4689" rx="5.67933" stroke="#381481" stroke-width="0.532437"/>
<rect x="47.8959" y="348.464" width="51.4689" height="51.4689" rx="5.67933" stroke="#381481" stroke-width="0.532437"/>
<rect x="99.3647" y="348.464" width="51.4689" height="51.4689" rx="5.67933" stroke="#381481" stroke-width="0.532437"/>
<rect x="150.834" y="348.463" width="51.4689" height="51.4689" rx="5.67933" stroke="#381481" stroke-width="0.532437"/>
<rect x="202.303" y="348.463" width="51.4689" height="51.4689" rx="5.67933" stroke="#381481" stroke-width="0.532437"/>
<rect x="253.772" y="348.463" width="51.4689" height="51.4689" rx="5.67933" stroke="#381481" stroke-width="0.532437"/>
<rect x="-3.57312" y="399.932" width="51.4689" height="51.4689" rx="5.67933" stroke="#381481" stroke-width="0.532437"/>
<rect x="47.8959" y="399.932" width="51.4689" height="51.4689" rx="5.67933" stroke="#381481" stroke-width="0.532437"/>
<rect x="99.3647" y="399.932" width="51.4689" height="51.4689" rx="5.67933" stroke="#381481" stroke-width="0.532437"/>
<rect x="150.834" y="399.932" width="51.4689" height="51.4689" rx="5.67933" stroke="#381481" stroke-width="0.532437"/>
<rect x="202.303" y="399.932" width="51.4689" height="51.4689" rx="5.67933" stroke="#381481" stroke-width="0.532437"/>
<rect x="253.772" y="399.932" width="51.4689" height="51.4689" rx="5.67933" stroke="#381481" stroke-width="0.532437"/>
<rect x="-3.57312" y="451.401" width="51.4689" height="51.4689" rx="5.67933" stroke="#381481" stroke-width="0.532437"/>
<rect x="47.8959" y="451.401" width="51.4689" height="51.4689" rx="5.67933" stroke="#381481" stroke-width="0.532437"/>
<rect x="99.3647" y="451.401" width="51.4689" height="51.4689" rx="5.67933" stroke="#381481" stroke-width="0.532437"/>
<rect x="150.834" y="451.401" width="51.4689" height="51.4689" rx="5.67933" stroke="#381481" stroke-width="0.532437"/>
<rect x="202.303" y="451.401" width="51.4689" height="51.4689" rx="5.67933" stroke="#381481" stroke-width="0.532437"/>
<rect x="253.772" y="451.401" width="51.4689" height="51.4689" rx="5.67933" stroke="#381481" stroke-width="0.532437"/>
<path d="M202.303 43.9094V85.4395C202.303 88.5761 204.846 91.1188 207.982 91.1188H248.092C251.229 91.1188 253.772 93.6616 253.772 96.7982V136.908C253.772 140.045 256.315 142.588 259.451 142.588H299.561C302.698 142.588 305.241 145.13 305.241 148.267V188.377C305.241 191.514 307.783 194.057 310.92 194.057H351.03C354.167 194.057 356.71 196.599 356.71 199.736V239.846C356.71 242.983 359.252 245.526 362.389 245.526H403.919M150.834 43.9094V85.4395C150.834 88.5761 153.377 91.1188 156.513 91.1188H196.624C199.76 91.1188 202.303 93.6616 202.303 96.7982V136.908C202.303 140.045 204.846 142.588 207.982 142.588H248.092C251.229 142.588 253.772 145.13 253.772 148.267V188.377C253.772 191.514 251.229 194.057 248.092 194.057H207.982C204.846 194.057 202.303 191.514 202.303 188.377V147.557L202.253 147.222C201.872 144.649 199.689 142.729 197.089 142.679L192.364 142.588H156.513C153.377 142.588 150.834 145.13 150.834 148.267V188.377C150.834 191.514 153.377 194.057 156.513 194.057H196.979L198.327 194.147C200.564 194.296 202.303 196.154 202.303 198.397V202.753M202.303 198.316V239.846C202.303 242.983 204.846 245.526 207.982 245.526H248.092C251.229 245.526 253.772 248.068 253.772 251.205V291.315C253.772 294.452 256.315 296.995 259.451 296.995H299.561C302.698 296.995 305.241 299.537 305.241 302.674V342.784C305.241 345.921 307.783 348.463 310.92 348.463H351.03C354.167 348.463 356.71 351.006 356.71 354.143V394.253C356.71 397.39 359.252 399.932 362.389 399.932H403.919" stroke="url(#paint0_linear_1_406)" stroke-opacity="0.8" stroke-width="0.532437"/>
<ellipse opacity="0.67" cx="150.008" cy="-17.3631" rx="189.008" ry="161.059" fill="url(#paint1_radial_1_406)"/>
</g>
</g>
<defs>
<linearGradient id="paint0_linear_1_406" x1="150.834" y1="43.9094" x2="398.24" y2="350.061" gradientUnits="userSpaceOnUse">
<stop stop-color="#8C52FE"/>
<stop offset="0.9375" stop-color="#3A1B76"/>
</linearGradient>
<radialGradient id="paint1_radial_1_406" cx="0" cy="0" r="1" gradientUnits="userSpaceOnUse" gradientTransform="translate(150.008 -17.3631) rotate(90) scale(161.059 189.008)">
<stop stop-color="#0F0524"/>
<stop offset="0.604167" stop-color="#0F0524" stop-opacity="0.49"/>
<stop offset="1" stop-color="#0F0524" stop-opacity="0"/>
</radialGradient>
<clipPath id="clip0_1_406">
<rect x="-9" y="-4" width="320" height="508" rx="6.61451" fill="white"/>
</clipPath>
<clipPath id="clip1_1_406">
<rect width="322" height="511" fill="white" transform="translate(-11 -4)"/>
</clipPath>
</defs>
</svg>
