<svg width="233" height="116" viewBox="0 0 233 116" fill="none" xmlns="http://www.w3.org/2000/svg">
<g clip-path="url(#clip0_6_20)">
<rect width="233" height="115.958" rx="4.73" fill="white" fill-opacity="0.1"/>
<g clip-path="url(#clip1_6_20)">
<rect width="275.312" height="288.288" transform="translate(-28.7722 -24.8232)" fill="#290F5E"/>
<rect x="-28.8311" y="-0.197327" width="29.037" height="29.037" rx="3.20408" stroke="#381481" stroke-width="0.300382"/>
<rect x="0.206085" y="-0.197357" width="29.037" height="29.037" rx="3.20408" stroke="#381481" stroke-width="0.300382"/>
<rect x="29.243" y="-0.197327" width="29.037" height="29.037" rx="3.20408" stroke="#381481" stroke-width="0.300382"/>
<rect x="58.2798" y="-0.197327" width="29.037" height="29.037" rx="3.20408" stroke="#381481" stroke-width="0.300382"/>
<rect x="87.3167" y="-0.197327" width="29.037" height="29.037" rx="3.20408" stroke="#381481" stroke-width="0.300382"/>
<rect x="-28.8311" y="28.8395" width="29.037" height="29.037" rx="3.20408" stroke="#381481" stroke-width="0.300382"/>
<rect x="0.206085" y="28.8394" width="29.037" height="29.037" rx="3.20408" stroke="#381481" stroke-width="0.300382"/>
<rect x="29.243" y="28.8395" width="29.037" height="29.037" rx="3.20408" stroke="#381481" stroke-width="0.300382"/>
<rect x="58.2798" y="28.8395" width="29.037" height="29.037" rx="3.20408" stroke="#381481" stroke-width="0.300382"/>
<rect x="87.3167" y="28.8395" width="29.037" height="29.037" rx="3.20408" stroke="#381481" stroke-width="0.300382"/>
<rect width="29.037" height="29.037" rx="3.20408" transform="matrix(-1 0 0 1 261.643 28.8396)" stroke="#381481" stroke-width="0.300382"/>
<rect width="29.037" height="29.037" rx="3.20408" transform="matrix(-1 0 0 1 232.607 28.8396)" stroke="#381481" stroke-width="0.300382"/>
<rect width="29.037" height="29.037" rx="3.20408" transform="matrix(-1 0 0 1 203.569 28.8395)" stroke="#381481" stroke-width="0.300382"/>
<rect width="29.037" height="29.037" rx="3.20408" transform="matrix(-1 0 0 1 174.533 28.8394)" stroke="#381481" stroke-width="0.300382"/>
<rect width="29.037" height="29.037" rx="3.20408" transform="matrix(-1 0 0 1 145.496 28.8395)" stroke="#381481" stroke-width="0.300382"/>
<rect x="116.459" width="29.037" height="29.037" rx="3.20408" stroke="#381481" stroke-width="0.300382"/>
<rect x="145.495" width="29.037" height="29.037" rx="3.20408" stroke="#381481" stroke-width="0.300382"/>
<rect x="174.532" width="29.037" height="29.037" rx="3.20408" stroke="#381481" stroke-width="0.300382"/>
<rect x="203.57" width="29.037" height="29.037" rx="3.20408" stroke="#381481" stroke-width="0.300382"/>
<rect x="232.606" width="29.037" height="29.037" rx="3.20408" stroke="#381481" stroke-width="0.300382"/>
<rect x="-28.8311" y="57.8763" width="29.037" height="29.037" rx="3.20408" stroke="#381481" stroke-width="0.300382"/>
<rect x="0.206085" y="57.8764" width="29.037" height="29.037" rx="3.20408" stroke="#381481" stroke-width="0.300382"/>
<rect x="29.243" y="57.8763" width="29.037" height="29.037" rx="3.20408" stroke="#381481" stroke-width="0.300382"/>
<rect x="58.2798" y="57.8763" width="29.037" height="29.037" rx="3.20408" stroke="#381481" stroke-width="0.300382"/>
<rect x="87.3167" y="57.8763" width="29.037" height="29.037" rx="3.20408" stroke="#381481" stroke-width="0.300382"/>
<rect x="-28.8312" y="86.9131" width="29.037" height="29.037" rx="3.20408" stroke="#381481" stroke-width="0.300382"/>
<rect x="0.205963" y="86.9131" width="29.037" height="29.037" rx="3.20408" stroke="#381481" stroke-width="0.300382"/>
<rect x="29.2429" y="86.9132" width="29.037" height="29.037" rx="3.20408" stroke="#381481" stroke-width="0.300382"/>
<rect x="58.2797" y="86.9131" width="29.037" height="29.037" rx="3.20408" stroke="#381481" stroke-width="0.300382"/>
<rect x="87.3166" y="86.9131" width="29.037" height="29.037" rx="3.20408" stroke="#381481" stroke-width="0.300382"/>
<rect x="-28.8312" y="115.95" width="29.037" height="29.037" rx="3.20408" stroke="#381481" stroke-width="0.300382"/>
<rect x="0.205963" y="115.95" width="29.037" height="29.037" rx="3.20408" stroke="#381481" stroke-width="0.300382"/>
<rect x="29.2429" y="115.95" width="29.037" height="29.037" rx="3.20408" stroke="#381481" stroke-width="0.300382"/>
<rect x="58.2797" y="115.95" width="29.037" height="29.037" rx="3.20408" stroke="#381481" stroke-width="0.300382"/>
<rect x="87.3166" y="115.95" width="29.037" height="29.037" rx="3.20408" stroke="#381481" stroke-width="0.300382"/>
<rect x="116.218" y="57.8764" width="29.037" height="29.037" rx="3.20408" stroke="#381481" stroke-width="0.300382"/>
<rect x="145.255" y="57.8764" width="29.037" height="29.037" rx="3.20408" stroke="#381481" stroke-width="0.300382"/>
<rect x="174.292" y="57.8763" width="29.037" height="29.037" rx="3.20408" stroke="#381481" stroke-width="0.300382"/>
<rect x="203.329" y="57.8763" width="29.037" height="29.037" rx="3.20408" stroke="#381481" stroke-width="0.300382"/>
<rect x="232.366" y="57.8764" width="29.037" height="29.037" rx="3.20408" stroke="#381481" stroke-width="0.300382"/>
<rect x="116.218" y="86.9132" width="29.037" height="29.037" rx="3.20408" stroke="#381481" stroke-width="0.300382"/>
<rect x="145.255" y="86.9132" width="29.037" height="29.037" rx="3.20408" stroke="#381481" stroke-width="0.300382"/>
<rect x="174.292" y="86.9131" width="29.037" height="29.037" rx="3.20408" stroke="#381481" stroke-width="0.300382"/>
<rect x="203.329" y="86.9131" width="29.037" height="29.037" rx="3.20408" stroke="#381481" stroke-width="0.300382"/>
<rect x="232.366" y="86.9132" width="29.037" height="29.037" rx="3.20408" stroke="#381481" stroke-width="0.300382"/>
<rect x="116.218" y="115.95" width="29.037" height="29.037" rx="3.20408" stroke="#381481" stroke-width="0.300382"/>
<rect x="145.255" y="115.95" width="29.037" height="29.037" rx="3.20408" stroke="#381481" stroke-width="0.300382"/>
<rect x="174.292" y="115.95" width="29.037" height="29.037" rx="3.20408" stroke="#381481" stroke-width="0.300382"/>
<rect x="203.329" y="115.95" width="29.037" height="29.037" rx="3.20408" stroke="#381481" stroke-width="0.300382"/>
<rect x="232.366" y="115.95" width="29.037" height="29.037" rx="3.20408" stroke="#381481" stroke-width="0.300382"/>
<path d="M58.2798 2.20552V25.6353C58.2798 27.4049 59.7143 28.8394 61.4838 28.8394H84.1126C85.8822 28.8394 87.3167 30.2739 87.3167 32.0435V54.6723C87.3167 56.4418 88.7512 57.8763 90.5208 57.8763H113.15C114.919 57.8763 116.354 59.3109 116.354 61.0804V83.7092C116.354 85.4788 117.788 86.9133 119.558 86.9133H142.187C143.956 86.9133 145.391 88.3478 145.391 90.1174V112.746C145.391 114.516 146.825 115.95 148.595 115.95H172.024M29.2428 2.20552V25.6353C29.2428 27.4049 30.6773 28.8394 32.4469 28.8394H55.0757C56.8453 28.8394 58.2798 30.2739 58.2798 32.0435V54.6723C58.2798 56.4418 59.7143 57.8763 61.4838 57.8763H84.1126C85.8822 57.8763 87.3167 59.3109 87.3167 61.0804V83.7092C87.3167 85.4788 85.8822 86.9133 84.1126 86.9133H61.4838C59.7143 86.9133 58.2798 85.4788 58.2798 83.7092V60.6799L58.2517 60.4907C58.0367 59.0394 56.8049 57.9558 55.3381 57.9276L52.6726 57.8763H32.4469C30.6773 57.8763 29.2428 59.3109 29.2428 61.0804V83.7092C29.2428 85.4788 30.6773 86.9133 32.4469 86.9133H55.2759L56.0366 86.964C57.2989 87.0482 58.2798 88.0966 58.2798 89.3617V91.8195M58.2798 89.3164V112.746C58.2798 114.516 59.7143 115.95 61.4838 115.95H84.1126C85.8822 115.95 87.3167 117.385 87.3167 119.154M230.098 57.9277H206.669C204.899 57.9277 203.465 56.4931 203.465 54.7236V32.0948C203.465 30.3252 202.03 28.8907 200.26 28.8907H177.632C175.862 28.8907 174.428 27.4562 174.428 25.6866V3.05785C174.428 1.28828 172.993 -0.146218 171.223 -0.146218H148.595C146.825 -0.146218 145.391 -1.58074 145.391 -3.3503" stroke="url(#paint0_linear_6_20)" stroke-opacity="0.8" stroke-width="0.300382"/>
</g>
<ellipse opacity="0.46" cx="116.743" cy="-9.02656" rx="121.82" ry="103.806" fill="url(#paint1_radial_6_20)"/>
<mask id="path-54-inside-1_6_20" fill="white">
<path d="M83.3477 -136.309C91.7763 -134.701 105.297 -129.115 104.946 -127.422C104.77 -126.83 98.6245 -120.397 91.1617 -113.203L77.7286 -99.999H72.1096C51.7405 -99.999 40.0633 -76.2154 52.355 -60.0493C54.2866 -57.5948 82.9965 -28.6482 102.927 -9.26577L106.965 -5.28772L103.19 -1.64824C101.083 0.383103 95.2004 6.30785 90.0203 11.5555L80.5382 21.0351L72.8997 13.1636C68.6854 8.93165 59.9935 0.213809 53.672 -6.04949C24.6987 -34.7422 21.3624 -38.5509 16.7969 -47.9459C12.1436 -57.5948 10.8267 -63.6042 10.8267 -75.0304C10.8267 -90.0116 14.163 -100.168 23.0306 -112.356C31.4592 -123.698 46.0336 -133.178 59.4667 -135.886C66.4027 -137.325 77.114 -137.579 83.3477 -136.309Z"/>
<path d="M178.96 -134.363C200.733 -127.422 216.8 -109.733 221.629 -87.4724C223.385 -79.1778 222.771 -64.6198 220.312 -57.2562C217.942 -50.2312 214.166 -42.2751 213.288 -42.6136C212.937 -42.6983 206.616 -48.9616 199.329 -56.4098L185.983 -69.9521L185.896 -75.1151C185.896 -82.0555 183.876 -87.3878 179.223 -92.2968C172.023 -100.084 160.785 -102.454 151.04 -98.3062C147.177 -96.6981 142.962 -92.974 125.491 -75.5383C113.989 -64.112 101.697 -51.7547 98.0977 -48.1998C94.5858 -44.5603 91.4251 -41.598 91.0739 -41.598C90.7227 -41.598 86.9474 -45.1528 82.6453 -49.4694C78.3432 -53.7014 72.5485 -59.4568 69.8268 -62.1653L64.8223 -66.9897L69.3878 -71.4756C71.934 -73.8455 84.8402 -86.7107 98.0977 -99.9144C122.944 -124.714 128.476 -129.2 138.573 -133.093C150.864 -137.748 166.756 -138.256 178.96 -134.363Z"/>
<path d="M167.897 4.95361C167.897 5.29217 158.239 15.2796 146.387 27.0444C134.534 38.8939 122.506 50.9974 119.608 53.9597C102.312 71.6493 80.4503 78.5897 57.9741 73.4267C46.6482 70.8029 32.9517 62.2544 25.0499 52.8594C15.3921 41.2639 11.0023 29.0758 10.9145 13.4175C10.9145 2.92227 12.0558 -3.08711 16.1823 -12.8206C19.2553 -20.1842 19.6942 -20.5228 22.3282 -17.4758C23.5573 -16.1215 29.6154 -9.94289 35.849 -3.84887L47.2628 7.23886L47.4384 13.5868C47.9651 28.0601 58.4131 38.3015 72.6363 38.3015C83.6989 38.3015 81.5917 40.0789 130.144 -8.58865L142.436 -20.8614L155.166 -8.25011C162.19 -1.39433 167.897 4.61506 167.897 4.95361Z"/>
<path d="M165.526 -70.206C210.83 -25.2626 213.991 -21.5385 218.644 -9.68896C222.156 -0.378651 223.034 5.54609 222.507 16.6338C221.805 31.2764 217.064 43.0413 207.582 53.9597C189.583 74.4424 160.434 80.7904 135.148 69.7026C131.197 67.9252 127.949 66.317 127.949 66.1478C127.949 65.9039 133.698 60.0394 140.842 52.7528L141.733 51.8437L155.517 37.9629H161.312C171.409 37.8783 179.398 32.7153 183.701 23.4896C185.808 18.8344 186.071 17.4802 185.72 11.8094C185.457 7.32351 184.666 4.19187 183.262 1.56805C181.506 -1.81752 165.878 -18.0683 135.587 -47.9459C130.934 -52.6011 127.159 -56.5791 127.247 -56.9177C127.422 -57.1716 132.953 -62.927 139.626 -69.6135C146.211 -76.3 151.654 -82.0555 151.654 -82.3941C151.654 -82.8173 151.83 -83.0712 152.093 -83.0712C152.269 -83.0712 158.327 -77.2311 165.526 -70.206Z"/>
</mask>
<path d="M69.5634 -139.949L69.6897 -137.656L69.7009 -137.656L69.7121 -137.657L69.5634 -139.949ZM53.672 -137.156L51.7831 -138.462L51.7516 -138.416L51.7222 -138.369L53.672 -137.156ZM33.4785 -126.914L34.8526 -125.074L34.8615 -125.081L34.8703 -125.088L33.4785 -126.914ZM9.4219 -90.4348L7.20265 -91.0257L7.20226 -91.0242L9.4219 -90.4348ZM11.0023 -54.717L13.1786 -55.4504L13.1757 -55.459L13.1727 -55.4675L11.0023 -54.717ZM35.1467 -20.4382L33.5225 -18.8145L33.5229 -18.8141L35.1467 -20.4382ZM79.2212 21.8815L79.9898 19.7173L79.9809 19.7142L79.2212 21.8815ZM84.6646 20.2733L85.9614 22.1688L85.9831 22.1539L86.0044 22.1386L84.6646 20.2733ZM107.404 -2.74855L109.419 -1.64571L109.425 -1.65781L109.432 -1.66998L107.404 -2.74855ZM99.6781 -16.4601L101.306 -18.0799L101.299 -18.0868L101.292 -18.0937L99.6781 -16.4601ZM75.9727 -40.0744L74.3508 -38.4484L74.3565 -38.4428L75.9727 -40.0744ZM51.8283 -67.4129L49.6193 -66.7846L49.6245 -66.7662L49.6301 -66.7479L51.8283 -67.4129ZM50.8625 -79.6856L48.6363 -80.2497L48.6309 -80.2287L48.626 -80.2076L50.8625 -79.6856ZM73.0753 -97.2059L73.232 -94.9147L73.2331 -94.9148L73.0753 -97.2059ZM79.2212 -97.6291L79.379 -95.338L80.2216 -95.396L80.8259 -95.9862L79.2212 -97.6291ZM92.5664 -110.664L90.9628 -112.307L90.9618 -112.306L92.5664 -110.664ZM106.526 -125.814L104.299 -126.374L104.296 -126.361L104.293 -126.349L106.526 -125.814ZM101.171 -133.432L102.132 -135.517L102.121 -135.522L102.11 -135.527L101.171 -133.432ZM153.41 -140.033L153.736 -137.76L153.744 -137.761L153.41 -140.033ZM123.12 -128.522L124.47 -126.664L124.473 -126.666L123.12 -128.522ZM63.5054 -69.1903L65.6384 -68.3393L65.6401 -68.3436L63.5054 -69.1903ZM63.242 -65.2123L61.0085 -64.6777L61.0283 -64.595L61.0541 -64.514L63.242 -65.2123ZM76.1483 -51.1622L77.7574 -52.8008L77.7528 -52.8053L76.1483 -51.1622ZM121.189 -66.4819L119.562 -68.1031L119.561 -68.1018L121.189 -66.4819ZM151.918 -95.0053L152.939 -92.9484L152.948 -92.9525L152.956 -92.9567L151.918 -95.0053ZM175.009 -91.3658L176.543 -93.0749L176.54 -93.0769L175.009 -91.3658ZM182.12 -76.3L184.41 -76.4739L184.409 -76.4868L182.12 -76.3ZM183.613 -68.09L181.574 -67.0327L181.584 -67.013L181.595 -66.9936L183.613 -68.09ZM224.966 -61.4882L227.202 -60.967L227.202 -60.9677L224.966 -61.4882ZM223.649 -93.6511L221.468 -92.9301L221.471 -92.921L223.649 -93.6511ZM200.558 -126.999L201.96 -128.817L201.948 -128.827L201.935 -128.836L200.558 -126.999ZM192.129 -132.416L193.61 -134.171L193.598 -134.181L193.587 -134.191L192.129 -132.416ZM173.165 -139.356L172.698 -137.108L172.711 -137.105L172.724 -137.102L173.165 -139.356ZM151.215 -83.9176L151.975 -81.7503L152.057 -81.7791L152.137 -81.8141L151.215 -83.9176ZM137.431 -71.391L139.032 -69.7446L139.04 -69.7516L139.047 -69.7587L137.431 -71.391ZM126.017 -53.6167L124.042 -52.4457L124.102 -52.3443L124.172 -52.2495L126.017 -53.6167ZM145.157 -34.2343L143.535 -32.6084L143.542 -32.6016L145.157 -34.2343ZM169.39 -10.1122L171.008 -11.7412L171.005 -11.7442L169.39 -10.1122ZM182.735 13.4175L180.438 13.3942L180.438 13.4059V13.4175H182.735ZM174.921 30.0915L176.349 31.8902L176.359 31.8819L174.921 30.0915ZM160.961 35.3391L161.043 37.6342L161.067 37.6333L161.091 37.632L160.961 35.3391ZM154.727 36.2701L155.516 38.427L155.55 38.4147L155.583 38.4012L154.727 36.2701ZM127.159 63.27L125.12 62.2127L125.103 62.2452L125.087 62.2783L127.159 63.27ZM127.598 67.8405L129.424 66.4478L129.407 66.4258L129.39 66.4042L127.598 67.8405ZM141.997 75.2888L142.669 73.0928L142.656 73.0891L141.997 75.2888ZM160.873 77.3201L160.854 79.6166L160.864 79.6167H160.873V77.3201ZM181.506 74.5271L182.229 76.7066L182.233 76.7055L181.506 74.5271ZM194.675 68.5177L193.612 66.4819L193.596 66.4902L193.581 66.4988L194.675 68.5177ZM210.83 54.5522L212.572 56.0487L212.574 56.0466L210.83 54.5522ZM222.771 32.9692L220.585 32.2639L220.583 32.2708L220.581 32.2778L222.771 32.9692ZM225.756 15.9567L223.461 15.8589L223.461 15.8702L223.46 15.8815L225.756 15.9567ZM217.766 -18.0683L215.791 -16.8972L215.817 -16.8528L215.845 -16.8097L217.766 -18.0683ZM177.994 -61.9114L179.618 -63.5347L179.603 -63.5499L179.588 -63.5648L177.994 -61.9114ZM167.721 -72.1527L166.08 -70.5461L166.094 -70.5325L166.107 -70.5191L167.721 -72.1527ZM153.586 -84.6793V-82.3828H153.686L153.786 -82.3915L153.586 -84.6793ZM131.461 -14.7673L129.836 -16.3901L129.833 -16.3872L131.461 -14.7673ZM81.5039 33.0538L82.1949 35.244L82.2098 35.2393L82.2246 35.2344L81.5039 33.0538ZM71.495 34.662L71.4461 36.958L71.4524 36.9581L71.495 34.662ZM46.5604 2.24515L48.2587 0.699158L48.2513 0.691132L46.5604 2.24515ZM9.2463 -3.59494L11.4567 -2.97165L11.457 -2.97276L9.2463 -3.59494ZM8.98291 28.6526L6.77908 29.2986L6.78057 29.3037L8.98291 28.6526ZM35.3223 66.6556L36.666 64.7931L36.6601 64.7889L35.3223 66.6556ZM83.1721 77.4048L83.5955 79.662L83.6047 79.6602L83.614 79.6584L83.1721 77.4048ZM102.312 71.2261L101.339 69.1459L101.331 69.1496L102.312 71.2261ZM124.261 54.0444L122.644 52.4143L122.628 52.4298L122.613 52.4456L124.261 54.0444ZM155.869 22.3893L154.245 20.765L154.245 20.7656L155.869 22.3893ZM170.619 3.76866L168.385 4.30331L168.396 4.34882L168.409 4.39384L170.619 3.76866ZM157.537 -10.62L155.92 -8.9886L155.922 -8.98666L157.537 -10.62ZM69.5634 -139.949L69.4371 -142.242C66.2453 -142.066 62.3078 -141.544 59.1067 -140.972C57.5054 -140.686 56.0463 -140.38 54.9308 -140.087C54.3794 -139.943 53.862 -139.789 53.4362 -139.626C53.2264 -139.547 52.9862 -139.445 52.756 -139.317C52.6003 -139.231 52.1335 -138.969 51.7831 -138.462L53.672 -137.156L55.5609 -135.849C55.3957 -135.61 55.2247 -135.47 55.1505 -135.412C55.0655 -135.347 55.0021 -135.311 54.9836 -135.3C54.9492 -135.281 54.9672 -135.295 55.0718 -135.334C55.275 -135.412 55.6122 -135.518 56.0953 -135.644C57.0484 -135.894 58.3769 -136.175 59.9144 -136.45C62.9909 -137 66.7356 -137.493 69.6897 -137.656L69.5634 -139.949ZM53.672 -137.156L51.7222 -138.369C51.7882 -138.475 51.8536 -138.551 51.9026 -138.602C51.9521 -138.653 51.9932 -138.686 52.0189 -138.705C52.0673 -138.741 52.086 -138.745 52.0624 -138.735C52.0419 -138.727 52.0051 -138.714 51.9567 -138.704C51.9087 -138.695 51.864 -138.69 51.8283 -138.69V-136.394V-134.097C52.5336 -134.097 53.2291 -134.245 53.8329 -134.497C54.378 -134.725 55.1343 -135.159 55.6218 -135.942L53.672 -137.156ZM51.8283 -136.394V-138.69C51.1834 -138.69 50.4953 -138.535 49.9 -138.365C49.2634 -138.182 48.5514 -137.928 47.8009 -137.629C46.2972 -137.028 44.5235 -136.198 42.6869 -135.25C39.0275 -133.362 34.9508 -130.923 32.0867 -128.741L33.4785 -126.914L34.8703 -125.088C37.4497 -127.053 41.2748 -129.353 44.7928 -131.168C46.545 -132.072 48.1789 -132.834 49.504 -133.363C50.1678 -133.628 50.7255 -133.823 51.1641 -133.949C51.644 -134.086 51.8366 -134.097 51.8283 -134.097V-136.394ZM33.4785 -126.914L32.1044 -128.754C19.1888 -119.109 11.5387 -107.31 7.20265 -91.0257L9.4219 -90.4348L11.6411 -89.8439C15.7337 -105.214 22.8336 -116.099 34.8526 -125.074L33.4785 -126.914ZM9.4219 -90.4348L7.20226 -91.0242C4.26957 -79.9805 4.91484 -65.2946 8.83178 -53.9665L11.0023 -54.717L13.1727 -55.4675C9.53906 -65.9764 8.95516 -79.7292 11.6415 -89.8453L9.4219 -90.4348ZM11.0023 -54.717L8.82592 -53.9837C11.1002 -47.2342 13.139 -42.5167 16.7534 -37.3959C20.3171 -32.347 25.3686 -26.9709 33.5225 -18.8145L35.1467 -20.4382L36.7708 -22.0618C28.5944 -30.2408 23.8125 -35.36 20.506 -40.0445C17.2502 -44.6573 15.382 -48.9115 13.1786 -55.4504L11.0023 -54.717ZM35.1467 -20.4382L33.5229 -18.8141C47.7036 -4.63567 58.2529 5.78857 65.5027 12.7563C69.1252 16.2379 71.941 18.873 73.9818 20.6871C74.9999 21.5921 75.848 22.3132 76.5196 22.8394C76.8544 23.1018 77.1685 23.3339 77.4531 23.522C77.7013 23.686 78.0621 23.9087 78.4614 24.0487L79.2212 21.8815L79.9809 19.7142C80.1388 19.7695 80.1656 19.8091 79.9858 19.6902C79.8424 19.5954 79.6346 19.445 79.3523 19.2238C78.7896 18.7829 78.0223 18.1333 77.0334 17.2542C75.0602 15.5002 72.2954 12.9142 68.6855 9.44473C61.4706 2.5105 50.9484 -7.88651 36.7705 -22.0622L35.1467 -20.4382ZM79.2212 21.8815L78.4526 24.0456C79.6359 24.4659 80.8259 24.6116 82.207 24.1978C83.3987 23.8407 84.606 23.096 85.9614 22.1688L84.6646 20.2733L83.3679 18.3779C82.0015 19.3127 81.3212 19.6683 80.8887 19.7979C80.6455 19.8708 80.4747 19.8895 79.9898 19.7173L79.2212 21.8815ZM84.6646 20.2733L86.0044 22.1386C88.4309 20.3956 93.8392 15.251 98.7211 10.3136C101.195 7.81212 103.589 5.30641 105.478 3.22513C106.421 2.18568 107.251 1.23842 107.905 0.442734C108.524 -0.308716 109.095 -1.05362 109.419 -1.64571L107.404 -2.74855L105.39 -3.85139C105.297 -3.68173 104.984 -3.2364 104.358 -2.47557C103.769 -1.759 102.993 -0.871964 102.076 0.138443C100.245 2.15686 97.8983 4.61314 95.455 7.08418C90.5035 12.0919 85.376 16.9347 83.3248 18.4081L84.6646 20.2733ZM107.404 -2.74855L109.432 -1.66998C109.967 -2.67696 110.39 -3.80585 110.395 -5.10918C110.4 -6.41786 109.982 -7.64507 109.293 -8.86263C107.991 -11.1635 105.374 -13.9918 101.306 -18.0799L99.6781 -16.4601L98.0501 -14.8403C102.235 -10.6337 104.359 -8.25671 105.296 -6.60074C105.726 -5.83986 105.803 -5.40074 105.802 -5.12508C105.801 -4.84407 105.719 -4.47061 105.377 -3.82712L107.404 -2.74855ZM99.6781 -16.4601L101.292 -18.0937C97.7531 -21.5908 87.2061 -32.1796 77.5889 -41.706L75.9727 -40.0744L74.3565 -38.4428C83.8791 -29.0101 94.5792 -18.2698 98.0639 -14.8265L99.6781 -16.4601ZM75.9727 -40.0744L77.5945 -41.7005C67.4357 -51.8329 61.7666 -57.5938 58.4789 -61.3244C55.2271 -65.0142 54.5036 -66.5007 54.0264 -68.078L51.8283 -67.4129L49.6301 -66.7479C50.382 -64.2625 51.5902 -62.1941 55.0329 -58.2875C58.4398 -54.4218 64.2283 -48.5447 74.3508 -38.4484L75.9727 -40.0744ZM51.8283 -67.4129L54.0372 -68.0412C52.6005 -73.0923 52.4316 -76.3045 53.0989 -79.1636L50.8625 -79.6856L48.626 -80.2076C47.713 -76.2956 48.0708 -72.2288 49.6193 -66.7846L51.8283 -67.4129ZM50.8625 -79.6856L53.0887 -79.1215C54.4016 -84.303 56.6377 -87.9819 59.8042 -90.4845C62.9878 -93.0006 67.3456 -94.5122 73.232 -94.9147L73.0753 -97.2059L72.9187 -99.4971C66.4256 -99.0532 61.0817 -97.3486 56.9562 -94.0881C52.8135 -90.814 50.1328 -86.1559 48.6363 -80.2497L50.8625 -79.6856ZM73.0753 -97.2059L73.2331 -94.9148L79.379 -95.338L79.2212 -97.6291L79.0634 -99.9203L72.9176 -99.4971L73.0753 -97.2059ZM79.2212 -97.6291L80.8259 -95.9862L94.1711 -109.021L92.5664 -110.664L90.9618 -112.306L77.6165 -99.2721L79.2212 -97.6291ZM92.5664 -110.664L94.1701 -109.02C97.8804 -112.639 101.334 -116.181 103.902 -118.968C105.183 -120.358 106.263 -121.58 107.048 -122.539C107.439 -123.016 107.779 -123.456 108.041 -123.835C108.172 -124.023 108.302 -124.224 108.414 -124.425C108.507 -124.591 108.669 -124.901 108.76 -125.279L106.526 -125.814L104.293 -126.349C104.35 -126.589 104.433 -126.717 104.4 -126.658C104.387 -126.634 104.347 -126.568 104.265 -126.45C104.103 -126.215 103.849 -125.882 103.494 -125.449C102.79 -124.589 101.778 -123.441 100.524 -122.08C98.0223 -119.365 94.6275 -115.882 90.9628 -112.307L92.5664 -110.664ZM106.526 -125.814L108.754 -125.254C109.867 -129.682 106.532 -133.488 102.132 -135.517L101.171 -133.432L100.209 -131.346C103.887 -129.65 104.59 -127.532 104.299 -126.374L106.526 -125.814ZM101.171 -133.432L102.11 -135.527C91.8391 -140.13 78.9971 -142.862 69.4147 -142.24L69.5634 -139.949L69.7121 -137.657C78.3917 -138.22 90.4842 -135.704 100.231 -131.336L101.171 -133.432ZM153.41 -140.033L153.085 -142.307C141.548 -140.656 129.675 -136.14 121.768 -130.379L123.12 -128.522L124.473 -126.666C131.666 -131.908 142.797 -136.195 153.736 -137.76L153.41 -140.033ZM123.12 -128.522L121.77 -130.381C120.009 -129.101 115.414 -124.85 109.673 -119.351C103.86 -113.782 96.7043 -106.77 89.7174 -99.8178C82.7309 -92.8656 75.9035 -85.9633 70.747 -80.6143C68.1705 -77.9417 65.9999 -75.6451 64.432 -73.9194C63.65 -73.0588 63.0018 -72.3224 62.523 -71.7437C62.2849 -71.4558 62.0714 -71.1862 61.8985 -70.9474C61.7665 -70.7652 61.5231 -70.4217 61.3706 -70.037L63.5054 -69.1903L65.6401 -68.3436C65.5589 -68.1388 65.4863 -68.0707 65.6187 -68.2536C65.7102 -68.3799 65.8546 -68.5651 66.062 -68.8158C66.4745 -69.3143 67.0681 -69.9904 67.8315 -70.8307C69.3543 -72.5067 71.4886 -74.7655 74.0538 -77.4265C79.1806 -82.7447 85.9838 -89.6227 92.9572 -96.562C99.9301 -103.501 107.064 -110.491 112.851 -116.034C118.71 -121.647 123.027 -125.616 124.47 -126.664L123.12 -128.522ZM63.5054 -69.1903L61.3723 -70.0414C61.0327 -69.1901 60.871 -68.2098 60.818 -67.3412C60.7648 -66.4692 60.8091 -65.5105 61.0085 -64.6777L63.242 -65.2123L65.4754 -65.7469C65.4114 -66.0144 65.368 -66.4946 65.4026 -67.0614C65.4374 -67.6317 65.5391 -68.0903 65.6384 -68.3393L63.5054 -69.1903ZM63.242 -65.2123L61.0541 -64.514C61.2185 -63.999 61.549 -63.516 61.7417 -63.2421C61.9921 -62.8861 62.3125 -62.4741 62.679 -62.0264C63.4154 -61.1268 64.4158 -59.9887 65.5988 -58.6984C67.9694 -56.1127 71.1382 -52.8447 74.5437 -49.5191L76.1483 -51.1622L77.7528 -52.8053C74.3979 -56.0815 71.2892 -59.2884 68.9845 -61.8023C67.8299 -63.0617 66.8932 -64.1295 66.2331 -64.9359C65.9013 -65.3412 65.6585 -65.6572 65.4984 -65.8848C65.2806 -66.1944 65.3532 -66.1505 65.4298 -65.9106L63.242 -65.2123ZM76.1483 -51.1622L74.5391 -49.5236C79.2325 -44.9145 82.4973 -41.8282 84.8155 -39.8893C85.9716 -38.9222 86.961 -38.1818 87.8227 -37.674C88.6426 -37.1908 89.6009 -36.7622 90.6349 -36.7622V-39.0588V-41.3553C90.8348 -41.3553 90.7395 -41.2865 90.1547 -41.6311C89.6116 -41.9512 88.8451 -42.5068 87.7623 -43.4124C85.6028 -45.2188 82.4584 -48.1842 77.7574 -52.8008L76.1483 -51.1622ZM90.6349 -39.0588V-36.7622C93.1112 -36.7622 95.145 -38.0143 99.2479 -41.6983C103.468 -45.4871 110.416 -52.4002 122.816 -64.8619L121.189 -66.4819L119.561 -68.1018C107.115 -55.595 100.278 -48.7966 96.1793 -45.1159C91.9634 -41.3305 91.1437 -41.3553 90.6349 -41.3553V-39.0588ZM121.189 -66.4819L122.815 -64.8607C131.41 -73.4843 138.344 -80.2315 143.481 -84.9948C146.051 -87.3779 148.156 -89.2491 149.784 -90.6048C151.475 -92.0135 152.49 -92.7252 152.939 -92.9484L151.918 -95.0053L150.896 -97.0622C149.897 -96.566 148.497 -95.5108 146.844 -94.1344C145.128 -92.7049 142.957 -90.7726 140.358 -88.363C135.158 -83.5409 128.176 -76.7458 119.562 -68.1031L121.189 -66.4819ZM151.918 -95.0053L152.956 -92.9567C158.875 -95.9559 167.962 -94.5911 173.477 -89.6547L175.009 -91.3658L176.54 -93.0769C169.763 -99.1436 158.657 -100.995 150.88 -97.0539L151.918 -95.0053ZM175.009 -91.3658L173.475 -89.6567C175.924 -87.4584 177.291 -85.8163 178.167 -83.9629C179.053 -82.0867 179.531 -79.7929 179.831 -76.1133L182.12 -76.3L184.409 -76.4868C184.095 -80.34 183.563 -83.2939 182.32 -85.9248C181.067 -88.5783 179.186 -90.7027 176.543 -93.0749L175.009 -91.3658ZM182.12 -76.3L179.83 -76.1262C179.968 -74.3079 180.22 -72.4287 180.509 -70.8592C180.653 -70.0747 180.811 -69.3458 180.974 -68.7277C181.124 -68.1576 181.318 -67.5258 181.574 -67.0327L183.613 -68.09L185.651 -69.1474C185.66 -69.1313 185.634 -69.1808 185.582 -69.3329C185.534 -69.4738 185.478 -69.662 185.415 -69.899C185.29 -70.3732 185.157 -70.9827 185.026 -71.69C184.766 -73.104 184.536 -74.8219 184.41 -76.4738L182.12 -76.3ZM183.613 -68.09L181.595 -66.9936C181.978 -66.2881 182.765 -65.3275 183.623 -64.3461C184.543 -63.2953 185.733 -62.0135 187.092 -60.5967C189.812 -57.7601 193.264 -54.3261 196.703 -51.0111C200.141 -47.6971 203.585 -44.483 206.29 -42.0892C207.639 -40.896 208.829 -39.8841 209.754 -39.1611C210.212 -38.8033 210.643 -38.4856 211.018 -38.2467C211.202 -38.1289 211.417 -38.0014 211.644 -37.8956C211.791 -37.8268 212.258 -37.6086 212.85 -37.6086V-39.9052V-42.2017C213.132 -42.2017 213.339 -42.1444 213.42 -42.1198C213.515 -42.0908 213.575 -42.0631 213.589 -42.0563C213.616 -42.0439 213.588 -42.0551 213.488 -42.1186C213.295 -42.2422 212.995 -42.4572 212.583 -42.7798C211.767 -43.4176 210.658 -44.3577 209.334 -45.5291C206.695 -47.8645 203.301 -51.0301 199.891 -54.3179C196.481 -57.6048 193.074 -60.9949 190.406 -63.7762C189.071 -65.1684 187.934 -66.394 187.08 -67.3706C186.165 -68.4166 185.73 -69.0032 185.631 -69.1865L183.613 -68.09ZM212.85 -39.9052V-37.6086C214.754 -37.6086 216.387 -38.7777 217.618 -40.0159C218.922 -41.3275 220.179 -43.1238 221.339 -45.1937C223.668 -49.3489 225.801 -54.9539 227.202 -60.967L224.966 -61.4882L222.729 -62.0094C221.408 -56.3423 219.415 -51.1557 217.332 -47.4394C216.286 -45.5737 215.266 -44.1642 214.361 -43.2541C213.911 -42.8014 213.536 -42.5191 213.249 -42.3591C212.962 -42.1992 212.838 -42.2017 212.85 -42.2017V-39.9052ZM224.966 -61.4882L227.202 -60.9677C228.318 -65.7629 228.692 -71.9304 228.445 -77.9181C228.199 -83.9001 227.325 -89.9119 225.826 -94.3812L223.649 -93.6511L221.471 -92.921C222.782 -89.0109 223.62 -83.4695 223.856 -77.729C224.092 -71.9942 223.72 -66.2698 222.729 -62.0086L224.966 -61.4882ZM223.649 -93.6511L225.829 -94.372C221.219 -108.315 212.887 -120.391 201.96 -128.817L200.558 -126.999L199.155 -125.18C209.3 -117.356 217.123 -106.071 221.468 -92.9301L223.649 -93.6511ZM200.558 -126.999L201.935 -128.836C200.34 -130.032 198.816 -131.135 197.623 -131.946C197.031 -132.348 196.491 -132.698 196.052 -132.956C195.836 -133.082 195.606 -133.209 195.385 -133.311C195.275 -133.362 195.132 -133.424 194.971 -133.476C194.846 -133.517 194.537 -133.612 194.149 -133.612V-131.316V-129.019C193.815 -129.019 193.579 -129.099 193.546 -129.11C193.475 -129.133 193.441 -129.15 193.456 -129.143C193.485 -129.13 193.571 -129.086 193.729 -128.993C194.039 -128.811 194.482 -128.527 195.042 -128.146C196.153 -127.391 197.615 -126.335 199.18 -125.161L200.558 -126.999ZM194.149 -131.316V-133.612C194.357 -133.612 194.499 -133.578 194.536 -133.569C194.587 -133.557 194.608 -133.548 194.593 -133.553C194.563 -133.565 194.483 -133.599 194.36 -133.665C194.11 -133.8 193.827 -133.988 193.61 -134.171L192.129 -132.416L190.648 -130.66C191.134 -130.251 191.685 -129.889 192.181 -129.622C192.431 -129.487 192.702 -129.358 192.974 -129.255C193.18 -129.178 193.628 -129.019 194.149 -129.019V-131.316ZM192.129 -132.416L193.587 -134.191C192.752 -134.876 191.444 -135.576 190.048 -136.225C188.594 -136.902 186.844 -137.614 184.986 -138.296C181.282 -139.655 177.011 -140.945 173.605 -141.61L173.165 -139.356L172.724 -137.102C175.816 -136.498 179.842 -135.291 183.403 -133.984C185.177 -133.333 186.803 -132.669 188.111 -132.061C189.478 -131.425 190.322 -130.929 190.672 -130.641L192.129 -132.416ZM173.165 -139.356L173.632 -141.605C167.671 -142.843 158.532 -143.108 153.076 -142.306L153.41 -140.033L153.744 -137.761C158.649 -138.482 167.245 -138.24 172.698 -137.108L173.165 -139.356ZM151.215 -83.9176L150.456 -86.0848C149.971 -85.9148 149.509 -85.5841 149.267 -85.4078C148.935 -85.1672 148.545 -84.8583 148.116 -84.5033C147.254 -83.7899 146.149 -82.8189 144.886 -81.6706C142.355 -79.3698 139.126 -76.2997 135.816 -73.0232L137.431 -71.391L139.047 -69.7587C142.321 -72.9994 145.502 -76.0234 147.975 -78.2719C149.214 -79.3983 150.26 -80.3158 151.044 -80.9646C151.438 -81.2907 151.745 -81.5312 151.965 -81.691C152.274 -81.9151 152.219 -81.8357 151.975 -81.7503L151.215 -83.9176ZM137.431 -71.391L135.83 -73.0373C130.882 -68.2251 127.774 -65.0823 125.903 -62.88C124.116 -60.7777 123.018 -59.0611 123.018 -57.1716H125.315H127.612C127.612 -57.2288 127.611 -57.7974 129.403 -59.9059C131.109 -61.9144 134.059 -64.9079 139.032 -69.7446L137.431 -71.391ZM125.315 -57.1716H123.018C123.018 -56.3151 123.127 -55.419 123.284 -54.6493C123.427 -53.9526 123.662 -53.0873 124.042 -52.4457L126.017 -53.6167L127.993 -54.7878C128.03 -54.7251 128.004 -54.754 127.945 -54.9365C127.894 -55.0963 127.837 -55.3112 127.785 -55.5677C127.678 -56.0887 127.612 -56.6738 127.612 -57.1716H125.315ZM126.017 -53.6167L124.172 -52.2495C124.329 -52.0376 124.632 -51.7151 124.881 -51.4508C125.189 -51.1247 125.609 -50.6876 126.125 -50.1558C127.158 -49.0906 128.596 -47.6251 130.331 -45.8669C133.804 -42.3493 138.484 -37.6476 143.535 -32.6084L145.157 -34.2343L146.779 -35.8603C141.734 -40.8932 137.063 -45.5864 133.6 -49.0939C131.868 -50.8482 130.441 -52.3027 129.422 -53.3536C128.912 -53.8798 128.508 -54.2996 128.222 -54.603C127.877 -54.9682 127.815 -55.0477 127.863 -54.9839L126.017 -53.6167ZM145.157 -34.2343L143.542 -32.6016C153.71 -22.5443 164.437 -11.784 167.774 -8.48016L169.39 -10.1122L171.005 -11.7442C167.845 -14.8729 156.799 -25.9495 146.772 -35.8671L145.157 -34.2343ZM169.39 -10.1122L167.771 -8.48311C173.5 -2.79033 176.634 0.728333 178.378 3.80153C180.028 6.71024 180.48 9.3105 180.438 13.3942L182.735 13.4175L185.031 13.4409C185.078 8.89137 184.564 5.39761 182.373 1.53519C180.275 -2.16275 176.693 -6.09235 171.008 -11.7412L169.39 -10.1122ZM182.735 13.4175H180.438C180.438 19.7756 178.186 24.5229 173.482 28.3011L174.921 30.0915L176.359 31.8819C182.192 27.1961 185.031 21.1095 185.031 13.4175H182.735ZM174.921 30.0915L173.493 28.2928C171.375 29.9742 169.584 31.0569 167.689 31.7731C165.791 32.4903 163.667 32.8853 160.831 33.0462L160.961 35.3391L161.091 37.632C164.225 37.4543 166.843 37.0029 169.312 36.0697C171.785 35.1354 173.989 33.7636 176.349 31.8901L174.921 30.0915ZM160.961 35.3391L160.879 33.044C159.6 33.0896 158.219 33.2254 157.01 33.4064C155.866 33.5778 154.668 33.8191 153.871 34.1391L154.727 36.2701L155.583 38.4012C155.84 38.2979 156.574 38.1161 157.69 37.9489C158.743 37.7913 159.951 37.6732 161.043 37.6342L160.961 35.3391ZM154.727 36.2701L153.939 34.1133C153.463 34.2871 153.002 34.5972 152.69 34.818C152.317 35.0813 151.889 35.4146 151.424 35.7934C150.493 36.5539 149.329 37.5712 148.026 38.7509C145.416 41.1147 142.174 44.1974 138.973 47.3369C135.771 50.4767 132.592 53.6906 130.106 56.3189C128.865 57.6314 127.784 58.8122 126.955 59.772C126.196 60.6509 125.464 61.5488 125.12 62.2127L127.159 63.27L129.197 64.3274C129.197 64.329 129.274 64.1954 129.52 63.8768C129.743 63.5869 130.047 63.2182 130.431 62.7745C131.196 61.8884 132.225 60.7635 133.444 59.4746C135.878 56.9003 139.014 53.7292 142.189 50.6163C145.364 47.503 148.559 44.4653 151.109 42.1554C152.387 40.9983 153.485 40.0405 154.329 39.3518C154.752 39.0061 155.09 38.7463 155.341 38.5687C155.653 38.3484 155.673 38.3696 155.516 38.427L154.727 36.2701ZM127.159 63.27L125.087 62.2783C124.609 63.2784 124.018 64.5203 124.135 65.88C124.258 67.295 125.094 68.3895 125.806 69.2769L127.598 67.8405L129.39 66.4042C129.032 65.958 128.85 65.6972 128.753 65.5243C128.672 65.3802 128.703 65.39 128.712 65.4845C128.719 65.5693 128.692 65.5615 128.758 65.3571C128.832 65.1294 128.97 64.8048 129.23 64.2617L127.159 63.27ZM127.598 67.8405L125.772 69.2333C128.462 72.7601 133.446 75.1221 141.337 77.4886L141.997 75.2888L142.656 73.0891C134.743 70.7158 131.124 68.6765 129.424 66.4478L127.598 67.8405ZM141.997 75.2888L141.325 77.4848C147.188 79.2792 150.537 79.5316 160.854 79.6166L160.873 77.3201L160.892 75.0236C150.665 74.9394 147.868 74.684 142.669 73.0928L141.997 75.2888ZM160.873 77.3201V79.6167C166.669 79.6167 170.02 79.5786 172.916 79.183C175.865 78.7801 178.292 78.014 182.229 76.7066L181.506 74.5271L180.782 72.3475C176.817 73.664 174.767 74.2944 172.294 74.6321C169.769 74.9771 166.754 75.0236 160.873 75.0236V77.3201ZM181.506 74.5271L182.233 76.7055C184.552 75.9315 186.788 75.1127 188.534 74.4178C189.404 74.0713 190.171 73.7483 190.773 73.4718C191.073 73.3341 191.352 73.1991 191.59 73.0714C191.789 72.9648 192.097 72.7931 192.363 72.5733L190.9 70.8029L189.437 69.0325C189.549 68.9397 189.591 68.932 189.424 69.0212C189.297 69.0892 189.109 69.1816 188.856 69.2978C188.353 69.5292 187.665 69.8198 186.835 70.1504C185.178 70.8098 183.025 71.5991 180.779 72.3486L181.506 74.5271ZM190.9 70.8029L192.363 72.5733C192.516 72.4467 192.963 72.1484 193.668 71.7276C194.326 71.3351 195.088 70.9066 195.77 70.5365L194.675 68.5177L193.581 66.4988C192.858 66.8905 192.04 67.3507 191.314 67.7834C190.637 68.1879 189.899 68.6513 189.437 69.0325L190.9 70.8029ZM194.675 68.5177L195.738 70.5534C198.085 69.3278 201.122 67.0507 204.092 64.4766C207.092 61.8773 210.16 58.857 212.572 56.0487L210.83 54.5522L209.088 53.0557C206.847 55.6643 203.945 58.5264 201.084 61.0054C198.194 63.5097 195.479 65.5069 193.612 66.4819L194.675 68.5177ZM210.83 54.5522L212.574 56.0466C217.779 49.9719 222.409 41.7428 224.961 33.6606L222.771 32.9692L220.581 32.2778C218.216 39.7692 213.89 47.4523 209.086 53.0578L210.83 54.5522ZM222.771 32.9692L224.956 33.6745C226.18 29.8814 226.91 27.4952 227.348 25.0216C227.786 22.5447 227.92 20.0441 228.051 16.0319L225.756 15.9567L223.46 15.8815C223.328 19.91 223.199 22.1069 222.825 24.2217C222.45 26.3398 221.819 28.4394 220.585 32.2639L222.771 32.9692ZM225.756 15.9567L228.05 16.0545C228.592 3.34315 225.28 -10.7901 219.687 -19.3268L217.766 -18.0683L215.845 -16.8097C220.788 -9.26491 223.973 3.85561 223.461 15.8589L225.756 15.9567ZM217.766 -18.0683L219.742 -19.2393C219.207 -20.1409 218.718 -20.962 218.358 -21.5948C218.176 -21.9135 218.047 -22.1506 217.969 -22.308C217.928 -22.3898 217.919 -22.4142 217.925 -22.3983C217.928 -22.3907 217.948 -22.3416 217.969 -22.2642C217.982 -22.2172 218.043 -22.0024 218.043 -21.7077H215.747H213.45C213.45 -21.1813 213.639 -20.7476 213.656 -20.7044C213.719 -20.545 213.793 -20.3883 213.86 -20.2557C213.995 -19.9847 214.173 -19.6611 214.365 -19.3238C214.751 -18.6447 215.271 -17.773 215.791 -16.8972L217.766 -18.0683ZM215.747 -21.7077H218.043C218.043 -22.2944 217.854 -22.7886 217.728 -23.0742C217.583 -23.403 217.395 -23.7311 217.196 -24.0444C216.795 -24.6731 216.228 -25.4267 215.517 -26.299C214.086 -28.0531 211.915 -30.4753 208.915 -33.6693C202.907 -40.0672 193.446 -49.6963 179.618 -63.5347L177.994 -61.9114L176.369 -60.2881C190.198 -46.4494 199.613 -36.8654 205.567 -30.5251C208.549 -27.35 210.631 -25.0219 211.957 -23.3957C212.625 -22.5778 213.062 -21.9838 213.322 -21.5763C213.453 -21.3715 213.509 -21.2594 213.525 -21.2219C213.561 -21.1413 213.45 -21.3432 213.45 -21.7077H215.747ZM177.994 -61.9114L179.588 -63.5648C177.395 -65.6785 172.907 -70.2576 169.336 -73.7863L167.721 -72.1527L166.107 -70.5191C169.56 -67.1074 174.203 -62.3762 176.4 -60.258L177.994 -61.9114ZM167.721 -72.1527L169.362 -73.7593C165.65 -77.5511 162.316 -80.7452 159.771 -82.9938C158.503 -84.1135 157.398 -85.0279 156.522 -85.6697C156.089 -85.9867 155.664 -86.2735 155.272 -86.488C155.078 -86.5947 154.844 -86.7103 154.588 -86.8007C154.375 -86.8759 153.929 -87.0148 153.385 -86.9671L153.586 -84.6793L153.786 -82.3915C153.363 -82.3544 153.076 -82.4636 153.058 -82.47C152.997 -82.4916 152.993 -82.4995 153.064 -82.4607C153.203 -82.3843 153.446 -82.2293 153.808 -81.9644C154.52 -81.4424 155.506 -80.6323 156.73 -79.5514C159.167 -77.3987 162.418 -74.2872 166.08 -70.5461L167.721 -72.1527ZM153.586 -84.6793V-86.9759C153.219 -86.9759 152.872 -86.9011 152.678 -86.8555C152.437 -86.799 152.181 -86.7247 151.929 -86.6436C151.422 -86.481 150.844 -86.2624 150.294 -86.021L151.215 -83.9176L152.137 -81.8141C152.552 -81.9959 152.984 -82.1582 153.334 -82.2707C153.509 -82.3271 153.642 -82.3639 153.728 -82.3841C153.771 -82.3941 153.786 -82.3963 153.779 -82.3951C153.774 -82.3944 153.757 -82.3917 153.729 -82.3891C153.703 -82.3866 153.653 -82.3828 153.586 -82.3828V-84.6793ZM131.461 -14.7673L129.833 -16.3872C110.203 3.34053 98.5041 15.0199 91.3288 21.8948C87.7365 25.3368 85.3189 27.5349 83.6279 28.9265C81.882 30.3631 81.1121 30.7646 80.7832 30.8733L81.5039 33.0538L82.2246 35.2344C83.4322 34.8353 84.7694 33.9354 86.5464 32.4732C88.3783 30.9658 90.8994 28.6675 94.5065 25.2113C101.73 18.2901 113.473 6.56671 133.089 -13.1475L131.461 -14.7673ZM81.5039 33.0538L80.8129 30.8637C78.3491 31.641 77.1572 32.0059 76.0217 32.1959C74.9242 32.3795 73.8191 32.4081 71.5375 32.3658L71.495 34.662L71.4524 36.9581C73.7363 37.0005 75.2213 36.9868 76.7796 36.726C78.3 36.4717 79.8299 35.9901 82.1949 35.244L81.5039 33.0538ZM71.495 34.662L71.5438 32.3659C61.0562 32.1429 52.9834 23.3857 52.9834 11.2169H50.6869H48.3903C48.3903 25.4556 58.0527 36.6732 71.4461 36.958L71.495 34.662ZM50.6869 11.2169H52.9834C52.9834 9.14328 52.9163 7.47473 52.1226 5.7643C51.3855 4.17607 50.0815 2.70161 48.2587 0.699173L46.5604 2.24515L44.8621 3.79111C46.8146 5.93599 47.5738 6.87376 47.9562 7.69775C48.2819 8.39954 48.3903 9.14322 48.3903 11.2169H50.6869ZM46.5604 2.24515L48.2513 0.691132C43.7678 -4.18741 37.579 -10.323 32.3386 -15.2365C29.7183 -17.6934 27.3135 -19.8652 25.4622 -21.432C24.5411 -22.2116 23.7267 -22.8673 23.0764 -23.3387C22.7557 -23.5712 22.4321 -23.7902 22.1307 -23.9611C21.981 -24.046 21.7953 -24.1427 21.5898 -24.224C21.4263 -24.2887 21.0485 -24.4275 20.5722 -24.4275V-22.1309V-19.8344C20.1838 -19.8344 19.9217 -19.9444 19.9006 -19.9528C19.8375 -19.9777 19.8209 -19.9906 19.8656 -19.9653C19.9531 -19.9157 20.1199 -19.8089 20.3806 -19.6199C20.8933 -19.2482 21.6064 -18.678 22.4949 -17.926C24.2625 -16.43 26.6042 -14.3169 29.1969 -11.8859C34.3825 -7.02367 40.4854 -0.971176 44.8694 3.79916L46.5604 2.24515ZM20.5722 -22.1309V-24.4275C18.8542 -24.4275 17.3525 -23.5533 16.1526 -22.486C14.9271 -21.3958 13.7771 -19.896 12.7161 -18.1499C10.588 -14.6475 8.60782 -9.80331 7.03562 -4.21712L9.2463 -3.59494L11.457 -2.97276C12.9577 -8.30502 14.7967 -12.7288 16.6415 -15.7648C17.5669 -17.2879 18.4418 -18.3749 19.2054 -19.0542C19.9947 -19.7563 20.4465 -19.8344 20.5722 -19.8344V-22.1309ZM9.2463 -3.59494L7.03593 -4.21825C5.72951 0.414642 5.08487 6.75587 5.04019 12.8611C4.99562 18.9518 5.54586 25.0919 6.77909 29.2986L8.98291 28.6526L11.1867 28.0065C10.1372 24.4265 9.58998 18.8017 9.6332 12.8948C9.67632 7.00243 10.3048 1.11331 11.4567 -2.97165L9.2463 -3.59494ZM8.98291 28.6526L6.78057 29.3037C11.9187 46.6838 20.1928 58.6381 33.9845 68.5223L35.3223 66.6556L36.6601 64.7889C23.7612 55.5446 16.056 44.4771 11.1852 28.0015L8.98291 28.6526ZM35.3223 66.6556L33.9786 68.5181C48.0967 78.7037 66.7338 82.8251 83.5955 79.662L83.1721 77.4048L82.7486 75.1476C67.1251 78.0785 49.7652 74.2438 36.6659 64.7932L35.3223 66.6556ZM83.1721 77.4048L83.614 79.6584C88.7394 78.6535 91.4874 78.1185 94.0402 77.2945C96.6051 76.4665 98.9501 75.3541 103.293 73.3027L102.312 71.2261L101.331 69.1496C96.8941 71.2455 94.8493 72.2067 92.6292 72.9234C90.3969 73.644 87.9649 74.1248 82.7302 75.1511L83.1721 77.4048ZM102.312 71.2261L103.285 73.3063C109.619 70.3429 118.275 63.5171 125.91 55.6431L124.261 54.0444L122.613 52.4456C115.147 60.1453 106.945 66.5231 101.339 69.146L102.312 71.2261ZM124.261 54.0444L125.879 55.6745C128.868 52.7089 134.15 47.3621 157.493 24.013L155.869 22.3893L154.245 20.7656C130.879 44.1374 125.626 49.4551 122.644 52.4143L124.261 54.0444ZM155.869 22.3893L157.492 24.0136C164.6 16.9093 168.605 12.8379 170.706 10.1896C171.758 8.86382 172.504 7.68864 172.86 6.50487C173.255 5.18855 173.098 4.09729 172.829 3.14349L170.619 3.76866L168.409 4.39384C168.534 4.83659 168.521 4.98317 168.46 5.18507C168.36 5.51952 168.053 6.14294 167.107 7.33516C165.213 9.7229 161.448 13.5652 154.245 20.765L155.869 22.3893ZM170.619 3.76866L172.852 3.23401C172.709 2.63559 172.347 2.09352 172.167 1.82745C171.917 1.45853 171.594 1.03505 171.227 0.579422C170.489 -0.337158 169.477 -1.49719 168.278 -2.81381C165.874 -5.45312 162.64 -8.80473 159.151 -12.2533L157.537 -10.62L155.922 -8.98666C159.369 -5.5795 162.545 -2.28693 164.882 0.279068C166.054 1.56511 166.995 2.64801 167.651 3.46124C167.98 3.87053 168.215 4.18367 168.364 4.40392C168.583 4.72702 168.463 4.62666 168.385 4.30331L170.619 3.76866ZM157.537 -10.62L159.153 -12.2514C155.243 -16.1258 152.27 -19.1278 149.899 -21.1987C147.589 -23.2155 145.451 -24.7257 143.18 -25.0867C140.681 -25.484 138.608 -24.4312 136.673 -22.9127C134.79 -21.435 132.59 -19.1481 129.836 -16.3901L131.461 -14.7673L133.086 -13.1445C135.995 -16.0574 137.91 -18.0448 139.509 -19.2993C141.055 -20.5131 141.831 -20.6505 142.459 -20.5505C143.316 -20.4143 144.586 -19.7398 146.878 -17.7389C149.107 -15.792 151.929 -12.9433 155.92 -8.9886L157.537 -10.62ZM140.842 52.7528L142.482 54.3605C142.777 54.0598 143.074 53.7566 143.373 53.4514L141.733 51.8437L140.093 50.236C139.794 50.5414 139.497 50.8443 139.202 51.145L140.842 52.7528ZM83.3477 -136.309L82.431 -131.809L82.4589 -131.803L82.4868 -131.797L83.3477 -136.309ZM104.946 -127.422L109.35 -126.117L109.404 -126.301L109.443 -126.489L104.946 -127.422ZM91.1617 -113.203L87.9739 -116.51L87.9578 -116.494L87.9419 -116.478L91.1617 -113.203ZM77.7286 -99.999V-95.4059H79.608L80.9484 -96.7233L77.7286 -99.999ZM52.355 -60.0493L48.6988 -57.2693L48.7219 -57.2389L48.7455 -57.2089L52.355 -60.0493ZM102.927 -9.26576L106.15 -12.5381L106.139 -12.5483L106.129 -12.5585L102.927 -9.26576ZM106.965 -5.28772L110.153 -1.98094L113.547 -5.25235L110.188 -8.56004L106.965 -5.28772ZM103.19 -1.64824L100.002 -4.95502H100.002L103.19 -1.64824ZM90.0203 11.5555L93.2677 14.8038L93.2785 14.793L93.2891 14.7822L90.0203 11.5555ZM80.5382 21.0351L77.2419 24.2337L80.4885 27.5795L83.7856 24.2833L80.5382 21.0351ZM72.8997 13.1636L76.196 9.96494L76.1753 9.94362L76.1544 9.92258L72.8997 13.1636ZM53.672 -6.0495L56.9048 -9.3123L56.904 -9.3131L53.672 -6.0495ZM16.7969 -47.9459L12.6597 -45.9507L12.6657 -45.9383L16.7969 -47.9459ZM23.0306 -112.356L19.344 -115.096L19.3301 -115.077L19.3164 -115.059L23.0306 -112.356ZM59.4667 -135.886L60.3745 -131.384L60.3871 -131.386L60.3996 -131.389L59.4667 -135.886ZM178.96 -134.363L177.564 -129.987L177.565 -129.986L178.96 -134.363ZM221.629 -87.4724L226.123 -88.4237L226.12 -88.4349L226.118 -88.4462L221.629 -87.4724ZM220.312 -57.2562L224.664 -55.7877L224.667 -55.7947L224.669 -55.8017L220.312 -57.2562ZM213.288 -42.6136L214.941 -46.8992L214.659 -47.008L214.365 -47.0789L213.288 -42.6136ZM199.329 -56.4098L202.612 -59.622L202.606 -59.6279L202.6 -59.6338L199.329 -56.4098ZM185.983 -69.9521L181.391 -69.874L181.422 -68.0369L182.712 -66.7281L185.983 -69.9521ZM185.896 -75.1151H181.302V-75.076L181.303 -75.037L185.896 -75.1151ZM179.223 -92.2968L175.85 -89.1787L175.87 -89.1577L175.889 -89.137L179.223 -92.2968ZM151.04 -98.3062L152.805 -94.0658L152.822 -94.0728L152.838 -94.0799L151.04 -98.3062ZM125.491 -75.5383L128.728 -72.2798L128.735 -72.2871L125.491 -75.5383ZM98.0977 -48.1998L94.8703 -51.468L94.8309 -51.4291L94.7925 -51.3892L98.0977 -48.1998ZM82.6453 -49.4694L85.8986 -52.7118L85.8825 -52.7279L85.8663 -52.7438L82.6453 -49.4694ZM69.8268 -62.1653L73.0667 -65.4211L73.0409 -65.4468L73.0146 -65.4721L69.8268 -62.1653ZM64.8223 -66.9897L61.6032 -70.266L58.2369 -66.9584L61.6345 -63.683L64.8223 -66.9897ZM69.3878 -71.4756L66.2584 -74.8377L66.213 -74.7954L66.1687 -74.7519L69.3878 -71.4756ZM98.0977 -99.9144L101.339 -96.6599L101.342 -96.6634L98.0977 -99.9144ZM138.573 -133.093L136.946 -137.388L136.933 -137.383L136.92 -137.379L138.573 -133.093ZM165.526 -70.206L168.761 -73.4668L168.748 -73.4802L168.734 -73.4934L165.526 -70.206ZM218.644 -9.68896L222.942 -11.31L222.931 -11.339L222.919 -11.3679L218.644 -9.68896ZM222.507 16.6338L227.095 16.8539L227.095 16.8518L222.507 16.6338ZM207.582 53.9597L211.032 56.9916L211.041 56.9816L211.05 56.9715L207.582 53.9597ZM135.148 69.7026L133.264 73.8914L133.284 73.9003L133.304 73.9091L135.148 69.7026ZM141.733 51.8437L138.474 48.6073L138.464 48.6178L138.453 48.6283L141.733 51.8437ZM155.517 37.9629V33.3698H153.606L152.258 34.7264L155.517 37.9629ZM161.312 37.9629V42.556H161.331L161.351 42.5559L161.312 37.9629ZM183.701 23.4896L187.863 25.4308L187.874 25.4073L187.885 25.3837L183.701 23.4896ZM185.72 11.8094L181.135 12.0786L181.135 12.086L181.136 12.0933L185.72 11.8094ZM183.262 1.56805L179.184 3.6828L179.198 3.7095L179.212 3.73601L183.262 1.56805ZM135.587 -47.9459L132.339 -44.6987L132.35 -44.6873L132.362 -44.6759L135.587 -47.9459ZM127.247 -56.9177L123.469 -59.5302L123.005 -58.8597L122.801 -58.0707L127.247 -56.9177ZM139.626 -69.6135L142.877 -66.3691L142.888 -66.3798L142.899 -66.3907L139.626 -69.6135ZM146.387 27.0444L143.151 23.7845L143.145 23.7903L143.139 23.7962L146.387 27.0444ZM119.608 53.9597L116.325 50.7482L116.324 50.7486L119.608 53.9597ZM57.9741 73.4267L56.9375 77.9014L56.9458 77.9033L57.9741 73.4267ZM25.0499 52.8594L21.5206 55.7989L21.5277 55.8074L21.5348 55.8159L25.0499 52.8594ZM10.9145 13.4175H6.32132V13.4304L6.3214 13.4433L10.9145 13.4175ZM16.1823 -12.8206L20.4111 -11.0278L20.4162 -11.0397L20.4212 -11.0517L16.1823 -12.8206ZM22.3282 -17.4758L18.8534 -14.472L18.8897 -14.4299L18.9271 -14.3888L22.3282 -17.4758ZM35.849 -3.84886L32.6382 -0.564453L32.6434 -0.559387L32.6486 -0.554321L35.849 -3.84886ZM47.2628 7.23886L51.8541 7.11186L51.8025 5.24536L50.4632 3.94432L47.2628 7.23886ZM47.4384 13.5868L42.847 13.7138L42.8475 13.7338L42.8483 13.7539L47.4384 13.5868ZM130.144 -8.58865L126.899 -11.839L126.892 -11.8326L130.144 -8.58865ZM142.436 -20.8614L145.668 -24.1245L142.423 -27.3393L139.19 -24.1117L142.436 -20.8614ZM155.166 -8.25011L151.934 -4.987L151.946 -4.97505L151.958 -4.96318L155.166 -8.25011ZM140.842 52.7528L144.122 55.9683L144.122 55.9682L140.842 52.7528ZM83.3477 -136.309L82.4868 -131.797C86.3001 -131.07 91.4782 -129.386 95.6891 -127.651C97.7928 -126.784 99.4983 -125.968 100.592 -125.331C100.855 -125.177 101.057 -125.049 101.204 -124.948C101.357 -124.842 101.407 -124.797 101.389 -124.813C101.377 -124.823 101.327 -124.869 101.255 -124.95C101.187 -125.028 101.064 -125.176 100.931 -125.394C100.713 -125.752 100.137 -126.852 100.449 -128.355L104.946 -127.422L109.443 -126.489C109.799 -128.204 109.158 -129.546 108.777 -130.173C108.371 -130.839 107.881 -131.328 107.54 -131.635C106.841 -132.266 105.993 -132.815 105.218 -133.267C103.611 -134.203 101.476 -135.202 99.1894 -136.144C94.6205 -138.027 88.8238 -139.94 84.2085 -140.821L83.3477 -136.309ZM104.946 -127.422L100.542 -128.727C100.687 -129.215 100.881 -129.552 100.924 -129.628C100.996 -129.754 101.053 -129.838 101.07 -129.862C101.105 -129.912 101.105 -129.907 101.038 -129.824C100.911 -129.668 100.688 -129.407 100.35 -129.031C99.685 -128.29 98.7093 -127.25 97.4814 -125.978C95.033 -123.441 91.6704 -120.073 87.9739 -116.51L91.1617 -113.203L94.3495 -109.896C98.1158 -113.527 101.558 -116.973 104.092 -119.599C105.355 -120.908 106.415 -122.036 107.185 -122.893C107.564 -123.316 107.909 -123.711 108.181 -124.048C108.314 -124.212 108.471 -124.413 108.618 -124.626C108.643 -124.662 109.102 -125.281 109.35 -126.117L104.946 -127.422ZM91.1617 -113.203L87.9419 -116.478L74.5089 -103.275L77.7286 -99.999L80.9484 -96.7233L94.3814 -109.927L91.1617 -113.203ZM77.7286 -99.999V-104.592H72.1096V-99.999V-95.4059H77.7286V-99.999ZM72.1096 -99.999V-104.592C47.9115 -104.592 34.126 -76.4355 48.6988 -57.2693L52.355 -60.0493L56.0113 -62.8293C46.0007 -75.9953 55.5694 -95.4059 72.1096 -95.4059V-99.999ZM52.355 -60.0493L48.7455 -57.2089C49.4218 -56.3495 51.8211 -53.8414 54.9788 -50.5996C58.2684 -47.2225 62.673 -42.7562 67.6344 -37.7668C77.5565 -27.7885 89.7356 -15.6872 99.7243 -5.97301L102.927 -9.26576L106.129 -12.5585C96.1875 -22.2267 84.0466 -34.2899 74.1483 -44.2441C69.1995 -49.221 64.8189 -53.663 61.5593 -57.0094C59.9282 -58.6839 58.5868 -60.0748 57.5987 -61.1173C57.1038 -61.6394 56.7078 -62.0632 56.4131 -62.3857C56.2657 -62.547 56.1519 -62.674 56.0682 -62.7696C55.9762 -62.8745 55.9511 -62.9069 55.9646 -62.8898L52.355 -60.0493ZM102.927 -9.26576L99.7034 -5.99345L103.742 -2.01541L106.965 -5.28772L110.188 -8.56004L106.15 -12.5381L102.927 -9.26576ZM106.965 -5.28772L103.777 -8.5945L100.002 -4.95502L103.19 -1.64824L106.378 1.65854L110.153 -1.98094L106.965 -5.28772ZM103.19 -1.64824L100.002 -4.95502C97.8439 -2.87442 91.9133 3.09964 86.7515 8.32875L90.0203 11.5555L93.2891 14.7822C98.4875 9.51607 104.322 3.64062 106.378 1.65854L103.19 -1.64824ZM90.0203 11.5555L86.7729 8.30721L77.2908 17.7868L80.5382 21.0351L83.7856 24.2833L93.2677 14.8038L90.0203 11.5555ZM80.5382 21.0351L83.8344 17.8364L76.196 9.96494L72.8997 13.1636L69.6035 16.3623L77.2419 24.2337L80.5382 21.0351ZM72.8997 13.1636L76.1544 9.92258C71.9405 5.69109 63.2385 -3.03683 56.9048 -9.3123L53.672 -6.0495L50.4392 -2.78668C56.7484 3.46445 65.4304 12.1722 69.6451 16.4046L72.8997 13.1636ZM53.672 -6.0495L56.904 -9.3131C27.7276 -38.207 25.0751 -41.4197 20.9281 -49.9534L16.7969 -47.9459L12.6657 -45.9383C17.6497 -35.6822 21.6699 -31.2774 50.44 -2.78589L53.672 -6.0495ZM16.7969 -47.9459L20.9341 -49.9411C18.6983 -54.5772 17.3604 -58.1402 16.5525 -61.8094C15.7413 -65.493 15.4198 -69.485 15.4198 -75.0304H10.8267H6.23353C6.23353 -69.1496 6.57047 -64.4237 7.58113 -59.8339C8.59499 -55.2296 10.2423 -50.9635 12.6598 -45.9507L16.7969 -47.9459ZM10.8267 -75.0304H15.4198C15.4198 -89.029 18.4415 -98.2418 26.7447 -109.654L23.0306 -112.356L19.3164 -115.059C9.88443 -102.095 6.23353 -90.9942 6.23353 -75.0304H10.8267ZM23.0306 -112.356L26.7171 -109.617C34.5047 -120.096 48.1109 -128.911 60.3745 -131.384L59.4667 -135.886L58.5588 -140.389C43.9563 -137.444 28.4136 -127.3 19.344 -115.096L23.0306 -112.356ZM59.4667 -135.886L60.3996 -131.389C66.8391 -132.725 76.9118 -132.933 82.431 -131.809L83.3477 -136.309L84.2643 -140.81C77.3162 -142.225 65.9663 -141.925 58.5337 -140.383L59.4667 -135.886ZM178.96 -134.363L177.565 -129.986C197.774 -123.545 212.66 -107.152 217.141 -86.4987L221.629 -87.4724L226.118 -88.4462C220.941 -112.313 203.693 -131.3 180.354 -138.739L178.96 -134.363ZM221.629 -87.4724L217.136 -86.5211C217.904 -82.8912 218.195 -77.5996 217.962 -72.2131C217.729 -66.7995 216.989 -61.8061 215.956 -58.7107L220.312 -57.2562L224.669 -55.8017C226.094 -60.0699 226.891 -66.0373 227.14 -71.8172C227.391 -77.6243 227.11 -83.7589 226.123 -88.4237L221.629 -87.4724ZM220.312 -57.2562L215.96 -58.7248C214.833 -55.385 213.366 -51.8107 212.096 -49.154C211.453 -47.8066 210.917 -46.8161 210.548 -46.2375C210.344 -45.9163 210.31 -45.9125 210.44 -46.0468C210.489 -46.0982 210.781 -46.404 211.299 -46.6844C211.774 -46.9411 213.199 -47.5709 214.941 -46.8992L213.288 -42.6136L211.636 -38.3281C213.488 -37.614 215.045 -38.2663 215.673 -38.6058C216.343 -38.969 216.809 -39.4178 217.05 -39.6682C217.564 -40.2001 217.988 -40.8172 218.298 -41.3041C218.958 -42.3416 219.679 -43.7157 220.385 -45.1932C221.815 -48.1861 223.421 -52.1024 224.664 -55.7877L220.312 -57.2562ZM213.288 -42.6136L214.365 -47.0789C214.876 -46.9557 215.243 -46.7715 215.372 -46.705C215.541 -46.6176 215.668 -46.5381 215.735 -46.4948C215.868 -46.4083 215.956 -46.34 215.972 -46.3278C216.012 -46.2964 216.003 -46.3015 215.918 -46.3757C215.762 -46.5133 215.506 -46.7481 215.141 -47.0934C214.422 -47.7744 213.399 -48.7706 212.139 -50.016C209.627 -52.5007 206.244 -55.9098 202.612 -59.622L199.329 -56.4098L196.045 -53.1977C199.701 -49.4616 203.121 -46.0149 205.68 -43.4847C206.956 -42.2227 208.034 -41.1717 208.826 -40.4218C209.218 -40.0516 209.57 -39.725 209.855 -39.4748C209.991 -39.3551 210.161 -39.2096 210.336 -39.0736C210.419 -39.009 210.563 -38.8998 210.741 -38.7842C210.758 -38.7734 211.36 -38.3537 212.212 -38.1483L213.288 -42.6136ZM199.329 -56.4098L202.6 -59.6338L189.255 -73.176L185.983 -69.9521L182.712 -66.7281L196.057 -53.1859L199.329 -56.4098ZM185.983 -69.9521L190.576 -70.0302L190.488 -75.1932L185.896 -75.1151L181.303 -75.037L181.391 -69.874L185.983 -69.9521ZM185.896 -75.1151H190.489C190.489 -83.1584 188.067 -89.643 182.556 -95.4567L179.223 -92.2968L175.889 -89.137C179.685 -85.1326 181.302 -80.9526 181.302 -75.1151H185.896ZM179.223 -92.2968L182.595 -95.415C174.071 -104.635 160.76 -107.435 149.241 -102.533L151.04 -98.3062L152.838 -94.0799C160.811 -97.4726 169.976 -95.5321 175.85 -89.1787L179.223 -92.2968ZM151.04 -98.3062L149.275 -102.547C146.629 -101.445 144.152 -99.704 140.315 -96.2885C136.479 -92.8748 130.965 -87.4901 122.246 -78.7895L125.491 -75.5383L128.735 -72.2871C137.488 -81.0221 142.817 -86.2174 146.422 -89.4267C150.026 -92.6341 151.588 -93.5591 152.805 -94.0658L151.04 -98.3062ZM125.491 -75.5383L122.253 -78.7968C110.699 -67.3176 98.4806 -55.0332 94.8703 -51.468L98.0977 -48.1998L101.325 -44.9317C104.914 -48.4761 117.28 -60.9064 128.728 -72.2798L125.491 -75.5383ZM98.0977 -48.1998L94.7925 -51.3892C93.0758 -49.6101 91.4622 -48.0147 90.2562 -46.8823C89.6461 -46.3092 89.1823 -45.8944 88.8812 -45.6429C88.7209 -45.509 88.6752 -45.4791 88.7128 -45.5052C88.7244 -45.5132 88.8486 -45.6006 89.0478 -45.7045C89.1482 -45.7569 89.3415 -45.8525 89.6022 -45.9434C89.8165 -46.0182 90.3551 -46.1911 91.0739 -46.1911V-41.598V-37.0048C92.3185 -37.0048 93.2321 -37.5262 93.2963 -37.5597C93.5822 -37.7088 93.8137 -37.8634 93.9522 -37.9595C94.2435 -38.1618 94.5299 -38.3918 94.7701 -38.5925C95.2702 -39.0102 95.8819 -39.5634 96.5448 -40.1859C97.885 -41.4445 99.6077 -43.15 101.403 -45.0104L98.0977 -48.1998ZM91.0739 -41.598V-46.1911C91.9078 -46.1911 92.5206 -45.9575 92.7008 -45.8872C92.9564 -45.7874 93.1416 -45.6867 93.2264 -45.6388C93.3236 -45.584 93.3929 -45.5391 93.4263 -45.5169C93.4626 -45.4928 93.4845 -45.477 93.4889 -45.4737C93.4958 -45.4687 93.4736 -45.4848 93.4152 -45.5318C93.3597 -45.5765 93.2857 -45.6377 93.1917 -45.7178C92.8027 -46.0491 92.2244 -46.5713 91.4804 -47.2679C90.0056 -48.6487 88.0261 -50.5771 85.8986 -52.7118L82.6453 -49.4694L79.392 -46.227C81.5666 -44.0451 83.6257 -42.0378 85.2019 -40.562C85.9834 -39.8304 86.6837 -39.194 87.2358 -38.7239C87.5024 -38.4968 87.7994 -38.2528 88.0858 -38.0445C88.2205 -37.9466 88.4423 -37.7906 88.7108 -37.639C88.8437 -37.564 89.0705 -37.4429 89.3613 -37.3294C89.5766 -37.2454 90.218 -37.0048 91.0739 -37.0048V-41.598ZM82.6453 -49.4694L85.8663 -52.7438C81.574 -56.9661 75.7871 -62.714 73.0667 -65.4211L69.8268 -62.1653L66.5869 -58.9095C69.31 -56.1997 75.1123 -50.4366 79.4242 -46.195L82.6453 -49.4694ZM69.8268 -62.1653L73.0146 -65.4721L68.0101 -70.2965L64.8223 -66.9897L61.6345 -63.683L66.639 -58.8585L69.8268 -62.1653ZM64.8223 -66.9897L68.0415 -63.7134L72.607 -68.1993L69.3878 -71.4756L66.1687 -74.7519L61.6032 -70.266L64.8223 -66.9897ZM69.3878 -71.4756L72.5172 -68.1135C75.1387 -70.5535 88.1402 -83.5147 101.339 -96.66L98.0977 -99.9144L94.8565 -103.169C81.5403 -89.9066 68.7292 -77.1375 66.2584 -74.8377L69.3878 -71.4756ZM98.0977 -99.9144L101.342 -96.6634C126.348 -121.621 131.199 -125.327 140.225 -128.807L138.573 -133.093L136.92 -137.379C125.753 -133.072 119.541 -127.806 94.853 -103.165L98.0977 -99.9144ZM138.573 -133.093L140.199 -128.798C151.552 -133.097 166.378 -133.555 177.564 -129.987L178.96 -134.363L180.356 -138.738C167.133 -142.957 150.177 -142.399 136.946 -137.388L138.573 -133.093ZM165.526 -70.206L162.292 -66.9452C184.997 -44.4202 196.972 -32.3897 203.874 -24.5106C210.565 -16.8737 212.238 -13.4351 214.369 -8.01006L218.644 -9.68896L222.919 -11.3679C220.397 -17.7923 218.163 -22.1405 210.784 -30.5639C203.617 -38.7451 191.359 -51.0484 168.761 -73.4668L165.526 -70.206ZM218.644 -9.68896L214.347 -8.0679C217.614 0.595001 218.42 5.88635 217.919 16.4158L222.507 16.6338L227.095 16.8518C227.648 5.20583 226.698 -1.35231 222.942 -11.31L218.644 -9.68896ZM222.507 16.6338L217.919 16.4138C217.266 30.0296 212.918 40.8104 204.114 50.948L207.582 53.9597L211.05 56.9715C221.21 45.2722 226.343 32.5232 227.095 16.8539L222.507 16.6338ZM207.582 53.9597L204.131 50.9279C187.474 69.8838 160.475 75.7931 136.993 65.4961L135.148 69.7026L133.304 73.9091C160.393 85.7876 191.692 79.001 211.032 56.9916L207.582 53.9597ZM135.148 69.7026L137.033 65.5138C135.094 64.6416 133.346 63.8192 132.102 63.2043C131.471 62.8928 131.015 62.6563 130.739 62.5042C130.588 62.4204 130.57 62.4053 130.624 62.4414C130.634 62.4481 130.795 62.5518 130.999 62.7289C131.091 62.8089 131.331 63.022 131.585 63.3487C131.715 63.5163 131.92 63.8035 132.106 64.1975C132.283 64.5745 132.542 65.256 132.542 66.1478H127.949H123.356C123.356 67.772 124.207 68.8258 124.332 68.9869C124.599 69.3298 124.857 69.5618 124.974 69.6633C125.227 69.8833 125.462 70.0407 125.568 70.111C125.816 70.2745 126.083 70.4266 126.297 70.5451C126.755 70.7977 127.357 71.1061 128.032 71.4399C129.4 72.1159 131.252 72.9863 133.264 73.8914L135.148 69.7026ZM141.733 51.8437L144.992 55.0802L158.777 41.1994L155.517 37.9629L152.258 34.7264L138.474 48.6073L141.733 51.8437ZM155.517 37.9629V42.556H161.312V37.9629V33.3698H155.517V37.9629ZM161.312 37.9629L161.351 42.5559C173.236 42.4563 182.82 36.2457 187.863 25.4308L183.701 23.4896L179.538 21.5484C175.977 29.1848 169.582 33.3003 161.274 33.3699L161.312 37.9629ZM183.701 23.4896L187.885 25.3837C188.95 23.0305 189.763 21.0708 190.156 18.8227C190.544 16.6078 190.48 14.3697 190.304 11.5255L185.72 11.8094L181.136 12.0933C181.311 14.9199 181.291 16.1943 181.108 17.238C180.931 18.2485 180.558 19.2935 179.516 21.5955L183.701 23.4896ZM185.72 11.8094L190.305 11.5402C190.017 6.63962 189.13 2.79691 187.311 -0.599899L183.262 1.56805L179.212 3.73601C180.203 5.58682 180.896 8.0074 181.135 12.0786L185.72 11.8094ZM183.262 1.56805L187.339 -0.546707C186.902 -1.38976 186.225 -2.30719 185.552 -3.1572C184.825 -4.07622 183.891 -5.17531 182.769 -6.44127C180.523 -8.97679 177.408 -12.3112 173.434 -16.4397C165.48 -24.7034 153.967 -36.2684 138.813 -51.2159L135.587 -47.9459L132.362 -44.6759C147.498 -29.7458 158.944 -18.2466 166.816 -10.0691C170.755 -5.97697 173.769 -2.74658 175.893 -0.349228C176.957 0.851257 177.769 1.81062 178.35 2.54503C178.64 2.91164 178.854 3.19847 179.005 3.41396C179.167 3.64583 179.205 3.72314 179.184 3.6828L183.262 1.56805ZM135.587 -47.9459L138.836 -51.1931C136.526 -53.5044 134.458 -55.6226 132.993 -57.1886C132.253 -57.98 131.71 -58.5835 131.376 -58.9816C131.198 -59.1937 131.148 -59.2657 131.167 -59.2384C131.177 -59.2242 131.202 -59.1869 131.237 -59.1306C131.268 -59.0787 131.329 -58.9761 131.399 -58.8345C131.458 -58.7125 131.586 -58.4392 131.687 -58.063C131.763 -57.7781 131.982 -56.8815 131.693 -55.7647L127.247 -56.9177L122.801 -58.0707C122.505 -56.9327 122.727 -56.0078 122.813 -55.6877C122.923 -55.2764 123.067 -54.9609 123.151 -54.79C123.322 -54.4415 123.507 -54.1634 123.611 -54.0134C123.838 -53.6855 124.105 -53.3549 124.341 -53.0736C124.835 -52.4852 125.511 -51.7397 126.285 -50.9124C127.849 -49.241 129.996 -47.0426 132.339 -44.6987L135.587 -47.9459ZM127.247 -56.9177L131.024 -54.3052C130.832 -54.0276 130.633 -53.82 130.76 -53.9617C130.785 -53.9896 130.836 -54.0448 130.919 -54.1341C131.082 -54.3092 131.324 -54.5658 131.642 -54.9002C132.277 -55.5662 133.183 -56.5074 134.296 -57.6542C136.521 -59.9466 139.557 -63.042 142.877 -66.3691L139.626 -69.6135L136.375 -72.858C133.022 -69.4986 129.957 -66.373 127.704 -64.0526C126.579 -62.893 125.651 -61.9298 124.991 -61.2362C124.662 -60.8909 124.391 -60.604 124.192 -60.3896C124.094 -60.2842 124.001 -60.1831 123.922 -60.0956C123.884 -60.053 123.835 -59.9979 123.784 -59.9387C123.775 -59.9279 123.623 -59.753 123.469 -59.5302L127.247 -56.9177ZM139.626 -69.6135L142.899 -66.3907C146.206 -69.7489 149.238 -72.8847 151.452 -75.2338C152.555 -76.4037 153.478 -77.4036 154.138 -78.1475C154.461 -78.512 154.762 -78.8614 154.999 -79.1587C155.11 -79.2979 155.267 -79.5 155.417 -79.7252C155.487 -79.8311 155.618 -80.0336 155.748 -80.2942C155.774 -80.347 156.248 -81.212 156.248 -82.3941H151.654H147.061C147.061 -83.555 147.524 -84.3882 147.529 -84.399C147.639 -84.6175 147.738 -84.7677 147.767 -84.8112C147.834 -84.9117 147.867 -84.9489 147.816 -84.8852C147.73 -84.7769 147.554 -84.5688 147.264 -84.2416C146.697 -83.6023 145.848 -82.6818 144.767 -81.5348C142.613 -79.2498 139.631 -76.1647 136.353 -72.8364L139.626 -69.6135ZM151.654 -82.3941H156.248C156.248 -82.0492 156.187 -81.2382 155.608 -80.361C154.926 -79.3275 153.663 -78.478 152.093 -78.478V-83.0712V-87.6643C150.26 -87.6643 148.778 -86.6878 147.942 -85.4216C147.209 -84.3117 147.061 -83.1621 147.061 -82.3941H151.654ZM152.093 -83.0712V-78.478C150.902 -78.478 150.039 -78.965 150.031 -78.969C149.802 -79.0851 149.636 -79.1945 149.572 -79.237C149.431 -79.3314 149.338 -79.4069 149.33 -79.4132C149.295 -79.4408 149.305 -79.4345 149.387 -79.3625C149.535 -79.2315 149.778 -79.0102 150.122 -78.6891C150.802 -78.0551 151.782 -77.124 152.996 -75.959C155.419 -73.6338 158.722 -70.4277 162.319 -66.9186L165.526 -70.206L168.734 -73.4934C165.131 -77.0094 161.806 -80.2359 159.356 -82.587C158.134 -83.7601 157.116 -84.7282 156.386 -85.4087C156.025 -85.7448 155.709 -86.0347 155.465 -86.2505C155.35 -86.352 155.204 -86.478 155.058 -86.5946C154.995 -86.6453 154.856 -86.7545 154.681 -86.8714C154.601 -86.9252 154.421 -87.043 154.18 -87.1649C154.161 -87.1745 153.291 -87.6643 152.093 -87.6643V-83.0712ZM167.897 4.95361H163.304C163.304 3.87643 163.698 3.09752 163.733 3.02254C163.846 2.78241 163.954 2.60977 163.998 2.54152C164.051 2.45752 164.095 2.3967 164.116 2.36743C164.139 2.33519 164.155 2.31427 164.161 2.30746C164.168 2.29774 164.127 2.35036 164.001 2.49399C163.764 2.76529 163.381 3.18578 162.846 3.75864C161.785 4.89418 160.232 6.51729 158.292 8.5134C154.419 12.5002 149.061 17.9184 143.151 23.7845L146.387 27.0444L149.622 30.3043C155.565 24.4056 160.962 18.9476 164.881 14.9149C166.837 12.9013 168.439 11.2287 169.56 10.0288C170.115 9.43387 170.579 8.92664 170.917 8.54099C171.078 8.35616 171.256 8.14798 171.411 7.94902C171.481 7.85905 171.609 7.69112 171.74 7.48524C171.802 7.38782 171.924 7.19057 172.047 6.93051C172.091 6.83557 172.49 6.04138 172.49 4.95361H167.897ZM146.387 27.0444L143.139 23.7962C131.289 35.6429 119.243 47.7644 116.325 50.7482L119.608 53.9597L122.892 57.1713C125.768 54.2304 137.779 42.1449 149.634 30.2927L146.387 27.0444ZM119.608 53.9597L116.324 50.7486C100.042 67.4008 79.7786 73.7227 59.0024 68.9502L57.9741 73.4267L56.9458 77.9033C81.1221 83.4568 104.582 75.8979 122.892 57.1709L119.608 53.9597ZM57.9741 73.4267L59.0107 68.9521C48.7074 66.5652 35.8633 58.5804 28.565 49.903L25.0499 52.8594L21.5348 55.8159C30.0401 65.9284 44.589 75.0406 56.9375 77.9014L57.9741 73.4267ZM25.0499 52.8594L28.5792 49.9199C19.6261 39.1703 15.5896 28.0211 15.5075 13.3918L10.9145 13.4175L6.3214 13.4433C6.41496 30.1304 11.1582 43.3574 21.5206 55.7989L25.0499 52.8594ZM10.9145 13.4175H15.5076C15.5076 3.51112 16.5354 -1.88589 20.4111 -11.0278L16.1823 -12.8206L11.9535 -14.6134C7.57623 -4.28833 6.32132 2.33342 6.32132 13.4175H10.9145ZM16.1823 -12.8206L20.4212 -11.0517C21.1971 -12.911 21.7406 -14.1642 22.1694 -15.014C22.3805 -15.4325 22.5136 -15.6512 22.5783 -15.7461C22.6596 -15.8655 22.5431 -15.6562 22.1953 -15.3924C21.7782 -15.0761 21.0343 -14.6927 20.0473 -14.6903C19.1314 -14.6881 18.5093 -15.018 18.2885 -15.1533C18.0832 -15.2792 18.0394 -15.3503 18.1988 -15.192C18.3418 -15.0502 18.5452 -14.8285 18.8534 -14.472L22.3282 -17.4758L25.803 -20.4795C25.2278 -21.1449 24.2587 -22.2685 23.0892 -22.9854C22.4088 -23.4024 21.358 -23.8797 20.0254 -23.8766C18.6217 -23.8732 17.4731 -23.3404 16.6444 -22.7119C15.2943 -21.688 14.4679 -20.1432 13.9678 -19.152C13.3677 -17.9625 12.704 -16.412 11.9435 -14.5895L16.1823 -12.8206ZM22.3282 -17.4758L18.9271 -14.3888C20.259 -12.9213 26.4071 -6.65599 32.6382 -0.564453L35.849 -3.84886L39.0599 -7.13327C32.8237 -13.2298 26.8557 -19.3218 25.7293 -20.5628L22.3282 -17.4758ZM35.849 -3.84886L32.6486 -0.554321L44.0623 10.5334L47.2628 7.23886L50.4632 3.94432L39.0495 -7.14342L35.849 -3.84886ZM47.2628 7.23886L42.6714 7.36588L42.847 13.7138L47.4384 13.5868L52.0297 13.4598L51.8541 7.11186L47.2628 7.23886ZM47.4384 13.5868L42.8483 13.7539C43.4623 30.6254 55.8701 42.8946 72.6363 42.8946V38.3015V33.7083C60.9561 33.7083 52.468 25.4949 52.0285 13.4197L47.4384 13.5868ZM72.6363 38.3015V42.8946C75.0388 42.8946 77.8129 43.0516 80.7018 42.2412C83.7154 41.3958 86.5872 39.6361 90.2318 36.6684C97.3969 30.8338 109.257 18.8518 133.396 -5.34467L130.144 -8.58865L126.892 -11.8326C102.479 12.6385 91.1162 24.1015 84.4312 29.5451C81.1507 32.2164 79.4406 33.0541 78.2207 33.3963C76.8761 33.7735 75.7652 33.7083 72.6363 33.7083V38.3015ZM130.144 -8.58865L133.389 -5.3383L145.681 -17.611L142.436 -20.8614L139.19 -24.1117L126.899 -11.839L130.144 -8.58865ZM142.436 -20.8614L139.203 -17.5982L151.934 -4.987L155.166 -8.25011L158.399 -11.5132L145.668 -24.1245L142.436 -20.8614ZM155.166 -8.25011L151.958 -4.96318C155.438 -1.56602 158.585 1.61459 160.852 3.97597C161.988 5.16072 162.882 6.11659 163.478 6.78041C163.782 7.11963 163.971 7.33958 164.065 7.45692C164.12 7.5251 164.091 7.4938 164.027 7.39949C164 7.35945 163.902 7.21297 163.792 6.99866C163.737 6.89093 163.641 6.69255 163.55 6.42958C163.476 6.21515 163.304 5.67348 163.304 4.95361H167.897H172.49C172.49 3.73482 171.985 2.84361 171.969 2.81216C171.837 2.55484 171.706 2.35455 171.635 2.25023C171.484 2.02734 171.325 1.82552 171.211 1.68359C170.966 1.38072 170.653 1.02208 170.313 0.643188C169.62 -0.129211 168.647 -1.16765 167.48 -2.38455C165.136 -4.82645 161.918 -8.07841 158.375 -11.537L155.166 -8.25011ZM127.949 66.1478H132.542C132.542 67.0933 132.242 67.7839 132.178 67.9352C132.067 68.195 131.956 68.3857 131.903 68.474C131.793 68.657 131.699 68.7804 131.682 68.8035C131.633 68.8682 131.62 68.88 131.684 68.8055C131.798 68.674 132.003 68.4468 132.319 68.1086C132.938 67.4439 133.855 66.486 135.017 65.2859C137.335 62.8914 140.546 59.616 144.122 55.9683L140.842 52.7528L137.562 49.5373C133.995 53.1762 130.759 56.4763 128.416 58.8968C127.248 60.104 126.281 61.1134 125.599 61.8447C125.264 62.2044 124.964 62.5322 124.736 62.7966C124.629 62.92 124.485 63.09 124.349 63.2709C124.287 63.3522 124.161 63.5233 124.028 63.7432C123.964 63.8499 123.845 64.0564 123.729 64.3292C123.659 64.4936 123.356 65.1946 123.356 66.1478H127.949ZM140.842 52.7528L144.122 55.9682L145.013 55.0591L141.733 51.8437L138.453 48.6283L137.562 49.5374L140.842 52.7528Z" fill="url(#paint2_linear_6_20)" mask="url(#path-54-inside-1_6_20)"/>
</g>
<defs>
<linearGradient id="paint0_linear_6_20" x1="29.2428" y1="2.20555" x2="168.82" y2="174.925" gradientUnits="userSpaceOnUse">
<stop stop-color="#8C52FE"/>
<stop offset="0.9375" stop-color="#3A1B76"/>
</linearGradient>
<radialGradient id="paint1_radial_6_20" cx="0" cy="0" r="1" gradientUnits="userSpaceOnUse" gradientTransform="translate(116.743 -9.02656) rotate(90) scale(103.806 121.82)">
<stop stop-color="#0F0524"/>
<stop offset="0.604167" stop-color="#0F0524" stop-opacity="0.49"/>
<stop offset="1" stop-color="#0F0524" stop-opacity="0"/>
</radialGradient>
<linearGradient id="paint2_linear_6_20" x1="116.804" y1="-33.2933" x2="116.782" y2="44.287" gradientUnits="userSpaceOnUse">
<stop stop-color="#9863FF"/>
<stop offset="1" stop-color="#543198" stop-opacity="0"/>
</linearGradient>
<clipPath id="clip0_6_20">
<rect width="233" height="115.958" rx="4.73" fill="white"/>
</clipPath>
<clipPath id="clip1_6_20">
<rect width="275.312" height="288.288" fill="white" transform="translate(-28.7722 -24.8232)"/>
</clipPath>
</defs>
</svg>
